# 3ds Max Wavefront OBJ Exporter v0.97b - (c)2007 guruware
# File Created: 04.04.2019 17:44:27

mtllib model8.mtl

#
# object Sphere001
#

v  89.4049 -1.3432 2.9531
v  81.3151 3.7513 -13.6057
v  88.9567 15.8859 -5.3263
v  88.9567 15.8859 11.2325
v  81.3151 3.7513 19.5119
v  73.6735 -8.3834 11.2325
v  73.6735 -8.3834 -5.3263
v  65.1355 13.9401 -13.6057
v  72.7771 26.0748 -5.3263
v  72.7771 26.0748 11.2325
v  65.1355 13.9401 19.5119
v  57.4939 1.8054 11.2325
v  57.4939 1.8054 -5.3263
v  57.0457 19.0345 2.9531
# 14 vertices

vn 0.8462 -0.5329 -0.0000
vn 0.3735 -0.2352 -0.8973
vn 0.7876 0.4224 -0.4487
vn 0.7876 0.4224 0.4487
vn 0.3735 -0.2352 0.8973
vn -0.0407 -0.8928 0.4487
vn -0.0407 -0.8928 -0.4487
vn -0.3735 0.2352 -0.8973
vn 0.0407 0.8928 -0.4487
vn 0.0407 0.8928 0.4487
vn -0.3735 0.2352 0.8973
vn -0.7876 -0.4224 0.4487
vn -0.7876 -0.4224 -0.4487
vn -0.8462 0.5329 -0.0000
# 14 vertex normals

vt 0.1277 0.2577 0.0000
vt 0.2877 0.2674 0.0000
vt 0.1979 0.3997 0.0000
vt 0.0441 0.3943 0.0000
vt -0.0321 0.2498 0.0000
vt 0.0565 0.1143 0.0000
vt 0.2165 0.1239 0.0000
vt 0.3428 0.4021 0.0000
vt 0.3411 0.5706 0.0000
vt 0.1942 0.5683 0.0000
vt 0.0473 0.5648 0.0000
vt 0.9253 0.3964 0.0000
vt 0.9338 0.5648 0.0000
vt 0.7805 0.5676 0.0000
vt 0.7780 0.3991 0.0000
vt 0.6349 0.5702 0.0000
vt 0.6327 0.4019 0.0000
vt 0.4880 0.5713 0.0000
vt 0.4878 0.4028 0.0000
vt 0.8597 0.7061 0.0000
vt 1.0198 0.7011 0.0000
vt 0.9429 0.8430 0.0000
vt 0.6996 0.7070 0.0000
vt 0.7816 0.8459 0.0000
# 24 texture coords

g Sphere001
usemtl Material__25
s 1
f 1/1/1 2/2/2 3/3/3 
f 1/1/1 3/3/3 4/4/4 
f 1/1/1 4/4/4 5/5/5 
f 1/1/1 5/5/5 6/6/6 
f 1/1/1 6/6/6 7/7/7 
f 1/1/1 7/7/7 2/2/2 
f 2/8/2 8/9/8 9/10/9 
f 2/8/2 9/10/9 3/3/3 
f 3/3/3 9/10/9 10/11/10 
f 3/3/3 10/11/10 4/4/4 
f 4/12/4 10/13/10 11/14/11 
f 4/12/4 11/14/11 5/15/5 
f 5/15/5 11/14/11 12/16/12 
f 5/15/5 12/16/12 6/17/6 
f 6/17/6 12/16/12 13/18/13 
f 6/17/6 13/18/13 7/19/7 
f 7/19/7 13/18/13 8/9/8 
f 7/19/7 8/9/8 2/8/2 
f 14/20/14 9/21/9 8/22/8 
f 14/20/14 10/13/10 9/21/9 
f 14/20/14 11/14/11 10/13/10 
f 14/20/14 12/23/12 11/14/11 
f 14/20/14 13/24/13 12/23/12 
f 14/20/14 8/22/8 13/24/13 
# 24 faces

#
# object Sphere002
#

v  -8.3141 4.1816 79.1515
v  -5.9015 22.6123 74.6705
v  -19.7790 15.6044 68.9698
v  -19.7804 -0.3501 64.5371
v  -5.9043 -9.2966 65.8053
v  7.9731 -2.2886 71.5060
v  7.9745 13.6658 75.9386
v  -1.0792 27.5648 56.8433
v  -14.9567 20.5569 51.1426
v  -14.9581 4.6024 46.7099
v  -1.0820 -4.3441 47.9780
v  12.7954 2.6638 53.6788
v  12.7968 18.6183 58.1114
v  1.3305 14.0866 43.4971
# 14 vertices

vn -0.2522 -0.2590 0.9324
vn -0.1112 0.7503 0.6517
vn -0.8633 0.3705 0.3428
vn -0.8633 -0.4941 0.1026
vn -0.1114 -0.9789 0.1713
vn 0.6407 -0.5991 0.4802
vn 0.6407 0.2655 0.7204
vn 0.1114 0.9789 -0.1713
vn -0.6407 0.5991 -0.4802
vn -0.6407 -0.2655 -0.7204
vn 0.1112 -0.7503 -0.6517
vn 0.8633 -0.3705 -0.3428
vn 0.8633 0.4941 -0.1026
vn 0.2522 0.2590 -0.9324
# 14 vertex normals

vt 0.1277 0.2577 0.0000
vt 0.2877 0.2674 0.0000
vt 0.1979 0.3997 0.0000
vt 0.0441 0.3943 0.0000
vt -0.0321 0.2498 0.0000
vt 0.0565 0.1143 0.0000
vt 0.2165 0.1239 0.0000
vt 0.3428 0.4021 0.0000
vt 0.3411 0.5706 0.0000
vt 0.1942 0.5683 0.0000
vt 0.0473 0.5648 0.0000
vt 0.9253 0.3964 0.0000
vt 0.9338 0.5648 0.0000
vt 0.7805 0.5676 0.0000
vt 0.7780 0.3991 0.0000
vt 0.6349 0.5702 0.0000
vt 0.6327 0.4019 0.0000
vt 0.4880 0.5713 0.0000
vt 0.4878 0.4028 0.0000
vt 0.8597 0.7061 0.0000
vt 1.0198 0.7011 0.0000
vt 0.9429 0.8430 0.0000
vt 0.6996 0.7070 0.0000
vt 0.7816 0.8459 0.0000
# 24 texture coords

g Sphere002
usemtl Material__25
s 1
f 15/25/15 16/26/16 17/27/17 
f 15/25/15 17/27/17 18/28/18 
f 15/25/15 18/28/18 19/29/19 
f 15/25/15 19/29/19 20/30/20 
f 15/25/15 20/30/20 21/31/21 
f 15/25/15 21/31/21 16/26/16 
f 16/32/16 22/33/22 23/34/23 
f 16/32/16 23/34/23 17/27/17 
f 17/27/17 23/34/23 24/35/24 
f 17/27/17 24/35/24 18/28/18 
f 18/36/18 24/37/24 25/38/25 
f 18/36/18 25/38/25 19/39/19 
f 19/39/19 25/38/25 26/40/26 
f 19/39/19 26/40/26 20/41/20 
f 20/41/20 26/40/26 27/42/27 
f 20/41/20 27/42/27 21/43/21 
f 21/43/21 27/42/27 22/33/22 
f 21/43/21 22/33/22 16/32/16 
f 28/44/28 23/45/23 22/46/22 
f 28/44/28 24/37/24 23/45/23 
f 28/44/28 25/38/25 24/37/24 
f 28/44/28 26/47/26 25/38/25 
f 28/44/28 27/48/27 26/47/26 
f 28/44/28 22/46/22 27/48/27 
# 24 faces

#
# object Sphere003
#

v  3.0968 20.2154 -76.5478
v  4.7636 8.4631 -83.1773
v  -5.0892 9.3630 -76.7941
v  -5.0523 15.4943 -66.7423
v  4.8375 20.7256 -63.0736
v  14.6903 19.8257 -69.4568
v  14.6534 13.6944 -79.5086
v  8.1712 -2.7790 -76.3326
v  -1.6817 -1.8790 -69.9494
v  -1.6448 4.2523 -59.8975
v  8.2450 9.4836 -56.2289
v  18.0979 8.5836 -62.6120
v  18.0609 2.4524 -72.6639
v  9.9118 -2.2687 -62.8584
# 14 vertices

vn -0.2506 0.8269 -0.5034
vn -0.1134 -0.1023 -0.9883
vn -0.8643 -0.0338 -0.5018
vn -0.8615 0.4335 0.2643
vn -0.1078 0.8322 0.5439
vn 0.6431 0.7636 0.0574
vn 0.6403 0.2963 -0.7087
vn 0.1078 -0.8322 -0.5439
vn -0.6431 -0.7636 -0.0574
vn -0.6403 -0.2963 0.7087
vn 0.1134 0.1023 0.9883
vn 0.8643 0.0338 0.5018
vn 0.8615 -0.4335 -0.2643
vn 0.2506 -0.8269 0.5034
# 14 vertex normals

vt 0.1277 0.2577 0.0000
vt 0.2877 0.2674 0.0000
vt 0.1979 0.3997 0.0000
vt 0.0441 0.3943 0.0000
vt -0.0321 0.2498 0.0000
vt 0.0565 0.1143 0.0000
vt 0.2165 0.1239 0.0000
vt 0.3428 0.4021 0.0000
vt 0.3411 0.5706 0.0000
vt 0.1942 0.5683 0.0000
vt 0.0473 0.5648 0.0000
vt 0.9253 0.3964 0.0000
vt 0.9338 0.5648 0.0000
vt 0.7805 0.5676 0.0000
vt 0.7780 0.3991 0.0000
vt 0.6349 0.5702 0.0000
vt 0.6327 0.4019 0.0000
vt 0.4880 0.5713 0.0000
vt 0.4878 0.4028 0.0000
vt 0.8597 0.7061 0.0000
vt 1.0198 0.7011 0.0000
vt 0.9429 0.8430 0.0000
vt 0.6996 0.7070 0.0000
vt 0.7816 0.8459 0.0000
# 24 texture coords

g Sphere003
usemtl Material__25
s 1
f 29/49/29 30/50/30 31/51/31 
f 29/49/29 31/51/31 32/52/32 
f 29/49/29 32/52/32 33/53/33 
f 29/49/29 33/53/33 34/54/34 
f 29/49/29 34/54/34 35/55/35 
f 29/49/29 35/55/35 30/50/30 
f 30/56/30 36/57/36 37/58/37 
f 30/56/30 37/58/37 31/51/31 
f 31/51/31 37/58/37 38/59/38 
f 31/51/31 38/59/38 32/52/32 
f 32/60/32 38/61/38 39/62/39 
f 32/60/32 39/62/39 33/63/33 
f 33/63/33 39/62/39 40/64/40 
f 33/63/33 40/64/40 34/65/34 
f 34/65/34 40/64/40 41/66/41 
f 34/65/34 41/66/41 35/67/35 
f 35/67/35 41/66/41 36/57/36 
f 35/67/35 36/57/36 30/56/30 
f 42/68/42 37/69/37 36/70/36 
f 42/68/42 38/61/38 37/69/37 
f 42/68/42 39/62/39 38/61/38 
f 42/68/42 40/71/40 39/62/39 
f 42/68/42 41/72/41 40/71/40 
f 42/68/42 36/70/36 41/72/41 
# 24 faces

#
# object Sphere004
#

v  -45.9716 5.9131 -15.2489
v  -62.2074 20.4946 -20.3419
v  -46.4099 28.0817 -12.0055
v  -36.5492 17.8487 1.2108
v  -42.4860 0.0284 6.0907
v  -58.2835 -7.5587 -2.2456
v  -68.1442 2.6744 -15.4619
v  -74.9577 29.1914 -4.0952
v  -59.1602 36.7785 4.2412
v  -49.2995 26.5455 17.4575
v  -55.2363 8.7253 22.3374
v  -71.0338 1.1381 14.0011
v  -80.8945 11.3712 0.7848
v  -71.4721 23.3067 17.2445
# 14 vertices

vn 0.5690 -0.3881 -0.7250
vn -0.2048 0.3019 -0.9311
vn 0.5256 0.6527 -0.5456
vn 0.9816 0.1795 0.0655
vn 0.7071 -0.6444 0.2911
vn -0.0234 -0.9953 -0.0943
vn -0.4793 -0.5221 -0.7054
vn -0.7071 0.6444 -0.2911
vn 0.0234 0.9953 0.0943
vn 0.4793 0.5221 0.7054
vn 0.2048 -0.3019 0.9311
vn -0.5256 -0.6527 0.5456
vn -0.9816 -0.1795 -0.0655
vn -0.5690 0.3881 0.7250
# 14 vertex normals

vt 0.1277 0.2577 0.0000
vt 0.2877 0.2674 0.0000
vt 0.1979 0.3997 0.0000
vt 0.0441 0.3943 0.0000
vt -0.0321 0.2498 0.0000
vt 0.0565 0.1143 0.0000
vt 0.2165 0.1239 0.0000
vt 0.3428 0.4021 0.0000
vt 0.3411 0.5706 0.0000
vt 0.1942 0.5683 0.0000
vt 0.0473 0.5648 0.0000
vt 0.9253 0.3964 0.0000
vt 0.9338 0.5648 0.0000
vt 0.7805 0.5676 0.0000
vt 0.7780 0.3991 0.0000
vt 0.6349 0.5702 0.0000
vt 0.6327 0.4019 0.0000
vt 0.4880 0.5713 0.0000
vt 0.4878 0.4028 0.0000
vt 0.8597 0.7061 0.0000
vt 1.0198 0.7011 0.0000
vt 0.9429 0.8430 0.0000
vt 0.6996 0.7070 0.0000
vt 0.7816 0.8459 0.0000
# 24 texture coords

g Sphere004
usemtl Material__25
s 1
f 43/73/43 44/74/44 45/75/45 
f 43/73/43 45/75/45 46/76/46 
f 43/73/43 46/76/46 47/77/47 
f 43/73/43 47/77/47 48/78/48 
f 43/73/43 48/78/48 49/79/49 
f 43/73/43 49/79/49 44/74/44 
f 44/80/44 50/81/50 51/82/51 
f 44/80/44 51/82/51 45/75/45 
f 45/75/45 51/82/51 52/83/52 
f 45/75/45 52/83/52 46/76/46 
f 46/84/46 52/85/52 53/86/53 
f 46/84/46 53/86/53 47/87/47 
f 47/87/47 53/86/53 54/88/54 
f 47/87/47 54/88/54 48/89/48 
f 48/89/48 54/88/54 55/90/55 
f 48/89/48 55/90/55 49/91/49 
f 49/91/49 55/90/55 50/81/50 
f 49/91/49 50/81/50 44/80/44 
f 56/92/56 51/93/51 50/94/50 
f 56/92/56 52/85/52 51/93/51 
f 56/92/56 53/86/53 52/85/52 
f 56/92/56 54/95/54 53/86/53 
f 56/92/56 55/96/55 54/95/54 
f 56/92/56 50/94/50 55/96/55 
# 24 faces

#
# object Sphere005
#

v  28.2379 18.8079 53.2816
v  27.3341 12.0704 41.5073
v  17.2278 13.4260 47.3944
v  17.2278 13.4260 59.1687
v  27.3341 12.0704 65.0559
v  37.4405 10.7147 59.1687
v  37.4405 10.7147 47.3944
v  25.5266 -1.4047 41.5073
v  15.4203 -0.0491 47.3944
v  15.4203 -0.0491 59.1687
v  25.5266 -1.4047 65.0559
v  35.6329 -2.7604 59.1687
v  35.6329 -2.7604 47.3944
v  24.6228 -8.1423 53.2816
# 14 vertices

vn 0.1329 0.9911 -0.0000
vn 0.0587 0.4374 -0.8973
vn -0.7115 0.5407 -0.4487
vn -0.7115 0.5407 0.4487
vn 0.0587 0.4374 0.8973
vn 0.8289 0.3341 0.4487
vn 0.8289 0.3341 -0.4487
vn -0.0587 -0.4374 -0.8973
vn -0.8289 -0.3341 -0.4487
vn -0.8289 -0.3341 0.4487
vn -0.0587 -0.4374 0.8973
vn 0.7115 -0.5407 0.4487
vn 0.7115 -0.5407 -0.4487
vn -0.1329 -0.9911 -0.0000
# 14 vertex normals

vt 0.1277 0.2577 0.0000
vt 0.2877 0.2674 0.0000
vt 0.1979 0.3997 0.0000
vt 0.0441 0.3943 0.0000
vt -0.0321 0.2498 0.0000
vt 0.0565 0.1143 0.0000
vt 0.2165 0.1239 0.0000
vt 0.3428 0.4021 0.0000
vt 0.3411 0.5706 0.0000
vt 0.1942 0.5683 0.0000
vt 0.0473 0.5648 0.0000
vt 0.9253 0.3964 0.0000
vt 0.9338 0.5648 0.0000
vt 0.7805 0.5676 0.0000
vt 0.7780 0.3991 0.0000
vt 0.6349 0.5702 0.0000
vt 0.6327 0.4019 0.0000
vt 0.4880 0.5713 0.0000
vt 0.4878 0.4028 0.0000
vt 0.8597 0.7061 0.0000
vt 1.0198 0.7011 0.0000
vt 0.9429 0.8430 0.0000
vt 0.6996 0.7070 0.0000
vt 0.7816 0.8459 0.0000
# 24 texture coords

g Sphere005
usemtl Material__25
s 1
f 57/97/57 58/98/58 59/99/59 
f 57/97/57 59/99/59 60/100/60 
f 57/97/57 60/100/60 61/101/61 
f 57/97/57 61/101/61 62/102/62 
f 57/97/57 62/102/62 63/103/63 
f 57/97/57 63/103/63 58/98/58 
f 58/104/58 64/105/64 65/106/65 
f 58/104/58 65/106/65 59/99/59 
f 59/99/59 65/106/65 66/107/66 
f 59/99/59 66/107/66 60/100/60 
f 60/108/60 66/109/66 67/110/67 
f 60/108/60 67/110/67 61/111/61 
f 61/111/61 67/110/67 68/112/68 
f 61/111/61 68/112/68 62/113/62 
f 62/113/62 68/112/68 69/114/69 
f 62/113/62 69/114/69 63/115/63 
f 63/115/63 69/114/69 64/105/64 
f 63/115/63 64/105/64 58/104/58 
f 70/116/70 65/117/65 64/118/64 
f 70/116/70 66/109/66 65/117/65 
f 70/116/70 67/110/67 66/109/66 
f 70/116/70 68/119/68 67/110/67 
f 70/116/70 69/120/69 68/119/68 
f 70/116/70 64/118/64 69/120/69 
# 24 faces

#
# object Sphere006
#

v  -12.1731 17.3717 6.6787
v  -3.3135 30.8062 -3.6466
v  -8.1018 17.3365 -12.0032
v  -7.9664 2.5218 -4.6073
v  -3.0426 1.1767 11.1452
v  1.7457 14.6464 19.5018
v  1.6102 29.4611 12.1059
v  14.6766 28.0458 -9.5054
v  9.8883 14.5761 -17.8620
v  10.0238 -0.2386 -10.4661
v  14.9475 -1.5837 5.2864
v  19.7358 11.8860 13.6430
v  19.6003 26.7008 6.2471
v  23.8071 11.8509 -5.0390
# 14 vertices

vn -0.9409 0.1444 0.3064
vn -0.4226 0.8665 -0.2656
vn -0.6821 0.1366 -0.7184
vn -0.6747 -0.6662 -0.3176
vn -0.4079 -0.7391 0.5360
vn -0.1484 -0.0092 0.9889
vn -0.1558 0.7937 0.5881
vn 0.4079 0.7391 -0.5360
vn 0.1484 0.0092 -0.9889
vn 0.1558 -0.7937 -0.5881
vn 0.4226 -0.8665 0.2656
vn 0.6821 -0.1366 0.7184
vn 0.6747 0.6662 0.3176
vn 0.9409 -0.1444 -0.3064
# 14 vertex normals

vt 0.1277 0.2577 0.0000
vt 0.2877 0.2674 0.0000
vt 0.1979 0.3997 0.0000
vt 0.0441 0.3943 0.0000
vt -0.0321 0.2498 0.0000
vt 0.0565 0.1143 0.0000
vt 0.2165 0.1239 0.0000
vt 0.3428 0.4021 0.0000
vt 0.3411 0.5706 0.0000
vt 0.1942 0.5683 0.0000
vt 0.0473 0.5648 0.0000
vt 0.9253 0.3964 0.0000
vt 0.9338 0.5648 0.0000
vt 0.7805 0.5676 0.0000
vt 0.7780 0.3991 0.0000
vt 0.6349 0.5702 0.0000
vt 0.6327 0.4019 0.0000
vt 0.4880 0.5713 0.0000
vt 0.4878 0.4028 0.0000
vt 0.8597 0.7061 0.0000
vt 1.0198 0.7011 0.0000
vt 0.9429 0.8430 0.0000
vt 0.6996 0.7070 0.0000
vt 0.7816 0.8459 0.0000
# 24 texture coords

g Sphere006
usemtl Material__25
s 1
f 71/121/71 72/122/72 73/123/73 
f 71/121/71 73/123/73 74/124/74 
f 71/121/71 74/124/74 75/125/75 
f 71/121/71 75/125/75 76/126/76 
f 71/121/71 76/126/76 77/127/77 
f 71/121/71 77/127/77 72/122/72 
f 72/128/72 78/129/78 79/130/79 
f 72/128/72 79/130/79 73/123/73 
f 73/123/73 79/130/79 80/131/80 
f 73/123/73 80/131/80 74/124/74 
f 74/132/74 80/133/80 81/134/81 
f 74/132/74 81/134/81 75/135/75 
f 75/135/75 81/134/81 82/136/82 
f 75/135/75 82/136/82 76/137/76 
f 76/137/76 82/136/82 83/138/83 
f 76/137/76 83/138/83 77/139/77 
f 77/139/77 83/138/83 78/129/78 
f 77/139/77 78/129/78 72/128/72 
f 84/140/84 79/141/79 78/142/78 
f 84/140/84 80/133/80 79/141/79 
f 84/140/84 81/134/81 80/133/80 
f 84/140/84 82/143/82 81/134/81 
f 84/140/84 83/144/83 82/143/82 
f 84/140/84 78/142/78 83/144/83 
# 24 faces

#
# object Sphere007
#

v  -51.7944 9.4837 47.0118
v  -55.4530 7.8525 37.7580
v  -55.8713 1.0676 43.2398
v  -49.6117 -0.1114 49.2138
v  -42.9340 5.4945 49.7059
v  -42.5158 12.2793 44.2241
v  -48.7753 13.4583 38.2501
v  -50.2512 2.2319 31.1982
v  -50.6694 -4.5530 36.6801
v  -44.4099 -5.7320 42.6541
v  -37.7322 -0.1261 43.1462
v  -37.3140 6.6588 37.6644
v  -43.5735 7.8378 31.6904
v  -41.3908 -1.7574 33.8924
# 14 vertices

vn -0.5159 0.5574 0.6505
vn -0.8709 0.3671 -0.3268
vn -0.9139 -0.3300 0.2365
vn -0.2706 -0.4512 0.8504
vn 0.4155 0.1248 0.9010
vn 0.4585 0.8220 0.3377
vn -0.1847 0.9432 -0.2762
vn -0.4155 -0.1248 -0.9010
vn -0.4585 -0.8220 -0.3377
vn 0.1847 -0.9432 0.2762
vn 0.8709 -0.3671 0.3268
vn 0.9139 0.3300 -0.2365
vn 0.2706 0.4512 -0.8504
vn 0.5159 -0.5574 -0.6505
# 14 vertex normals

vt 0.1277 0.2577 0.0000
vt 0.2877 0.2674 0.0000
vt 0.1979 0.3997 0.0000
vt 0.0441 0.3943 0.0000
vt -0.0321 0.2498 0.0000
vt 0.0565 0.1143 0.0000
vt 0.2165 0.1239 0.0000
vt 0.3428 0.4021 0.0000
vt 0.3411 0.5706 0.0000
vt 0.1942 0.5683 0.0000
vt 0.0473 0.5648 0.0000
vt 0.9253 0.3964 0.0000
vt 0.9338 0.5648 0.0000
vt 0.7805 0.5676 0.0000
vt 0.7780 0.3991 0.0000
vt 0.6349 0.5702 0.0000
vt 0.6327 0.4019 0.0000
vt 0.4880 0.5713 0.0000
vt 0.4878 0.4028 0.0000
vt 0.8597 0.7061 0.0000
vt 1.0198 0.7011 0.0000
vt 0.9429 0.8430 0.0000
vt 0.6996 0.7070 0.0000
vt 0.7816 0.8459 0.0000
# 24 texture coords

g Sphere007
usemtl Material__25
s 1
f 85/145/85 86/146/86 87/147/87 
f 85/145/85 87/147/87 88/148/88 
f 85/145/85 88/148/88 89/149/89 
f 85/145/85 89/149/89 90/150/90 
f 85/145/85 90/150/90 91/151/91 
f 85/145/85 91/151/91 86/146/86 
f 86/152/86 92/153/92 93/154/93 
f 86/152/86 93/154/93 87/147/87 
f 87/147/87 93/154/93 94/155/94 
f 87/147/87 94/155/94 88/148/88 
f 88/156/88 94/157/94 95/158/95 
f 88/156/88 95/158/95 89/159/89 
f 89/159/89 95/158/95 96/160/96 
f 89/159/89 96/160/96 90/161/90 
f 90/161/90 96/160/96 97/162/97 
f 90/161/90 97/162/97 91/163/91 
f 91/163/91 97/162/97 92/153/92 
f 91/163/91 92/153/92 86/152/86 
f 98/164/98 93/165/93 92/166/92 
f 98/164/98 94/157/94 93/165/93 
f 98/164/98 95/158/95 94/157/94 
f 98/164/98 96/167/96 95/158/95 
f 98/164/98 97/168/97 96/167/96 
f 98/164/98 92/166/92 97/168/97 
# 24 faces

#
# object Sphere008
#

v  55.0939 10.6217 -47.3940
v  56.9070 -2.1770 -41.3171
v  46.5473 3.8171 -38.1921
v  46.5497 16.1602 -37.3768
v  56.9117 22.5092 -39.6866
v  67.2714 16.5151 -42.8116
v  67.2690 4.1720 -43.6269
v  60.5379 -3.0882 -27.5328
v  50.1782 2.9059 -24.4077
v  50.1806 15.2490 -23.5925
v  60.5427 21.5980 -25.9022
v  70.9023 15.6040 -29.0273
v  70.8999 3.2609 -29.8426
v  62.3557 8.7993 -19.8253
# 14 vertices

vn -0.2542 0.0638 -0.9650
vn -0.1124 -0.8672 -0.4850
vn -0.8639 -0.4324 -0.2584
vn -0.8637 0.4630 -0.1992
vn -0.1120 0.9235 -0.3668
vn 0.6395 0.4887 -0.5935
vn 0.6393 -0.4067 -0.6526
vn 0.1120 -0.9235 0.3668
vn -0.6395 -0.4887 0.5935
vn -0.6393 0.4067 0.6526
vn 0.1124 0.8672 0.4850
vn 0.8639 0.4324 0.2584
vn 0.8637 -0.4630 0.1992
vn 0.2542 -0.0638 0.9650
# 14 vertex normals

vt 0.1277 0.2577 0.0000
vt 0.2877 0.2674 0.0000
vt 0.1979 0.3997 0.0000
vt 0.0441 0.3943 0.0000
vt -0.0321 0.2498 0.0000
vt 0.0565 0.1143 0.0000
vt 0.2165 0.1239 0.0000
vt 0.3428 0.4021 0.0000
vt 0.3411 0.5706 0.0000
vt 0.1942 0.5683 0.0000
vt 0.0473 0.5648 0.0000
vt 0.9253 0.3964 0.0000
vt 0.9338 0.5648 0.0000
vt 0.7805 0.5676 0.0000
vt 0.7780 0.3991 0.0000
vt 0.6349 0.5702 0.0000
vt 0.6327 0.4019 0.0000
vt 0.4880 0.5713 0.0000
vt 0.4878 0.4028 0.0000
vt 0.8597 0.7061 0.0000
vt 1.0198 0.7011 0.0000
vt 0.9429 0.8430 0.0000
vt 0.6996 0.7070 0.0000
vt 0.7816 0.8459 0.0000
# 24 texture coords

g Sphere008
usemtl Material__25
s 1
f 99/169/99 100/170/100 101/171/101 
f 99/169/99 101/171/101 102/172/102 
f 99/169/99 102/172/102 103/173/103 
f 99/169/99 103/173/103 104/174/104 
f 99/169/99 104/174/104 105/175/105 
f 99/169/99 105/175/105 100/170/100 
f 100/176/100 106/177/106 107/178/107 
f 100/176/100 107/178/107 101/171/101 
f 101/171/101 107/178/107 108/179/108 
f 101/171/101 108/179/108 102/172/102 
f 102/180/102 108/181/108 109/182/109 
f 102/180/102 109/182/109 103/183/103 
f 103/183/103 109/182/109 110/184/110 
f 103/183/103 110/184/110 104/185/104 
f 104/185/104 110/184/110 111/186/111 
f 104/185/104 111/186/111 105/187/105 
f 105/187/105 111/186/111 106/177/106 
f 105/187/105 106/177/106 100/176/100 
f 112/188/112 107/189/107 106/190/106 
f 112/188/112 108/181/108 107/189/107 
f 112/188/112 109/182/109 108/181/108 
f 112/188/112 110/191/110 109/182/109 
f 112/188/112 111/192/111 110/191/110 
f 112/188/112 106/190/106 111/192/111 
# 24 faces

#
# object Sphere009
#

v  -78.4955 3.3680 -27.1295
v  -68.1704 -2.4658 -33.7781
v  -69.9554 -6.2757 -22.7811
v  -73.8704 1.1626 -14.5363
v  -76.0005 12.4108 -17.2883
v  -74.2156 16.2207 -28.2852
v  -70.3006 8.7824 -36.5301
v  -55.3503 0.7431 -30.5855
v  -57.1352 -3.0668 -19.5886
v  -61.0502 4.3715 -11.3437
v  -63.1804 15.6197 -14.0957
v  -61.3955 19.4296 -25.0927
v  -57.4804 11.9913 -33.3376
v  -52.8553 9.7859 -20.7444
# 14 vertices

vn -0.9429 -0.2360 -0.2348
vn -0.1178 -0.6711 -0.7320
vn -0.2538 -0.9614 0.1061
vn -0.5522 -0.3945 0.7345
vn -0.7145 0.4627 0.5247
vn -0.5785 0.7531 -0.3134
vn -0.2801 0.1862 -0.9417
vn 0.7145 -0.4627 -0.5247
vn 0.5785 -0.7531 0.3134
vn 0.2801 -0.1862 0.9417
vn 0.1178 0.6711 0.7320
vn 0.2538 0.9614 -0.1061
vn 0.5522 0.3945 -0.7345
vn 0.9429 0.2360 0.2348
# 14 vertex normals

vt 0.1277 0.2577 0.0000
vt 0.2877 0.2674 0.0000
vt 0.1979 0.3997 0.0000
vt 0.0441 0.3943 0.0000
vt -0.0321 0.2498 0.0000
vt 0.0565 0.1143 0.0000
vt 0.2165 0.1239 0.0000
vt 0.3428 0.4021 0.0000
vt 0.3411 0.5706 0.0000
vt 0.1942 0.5683 0.0000
vt 0.0473 0.5648 0.0000
vt 0.9253 0.3964 0.0000
vt 0.9338 0.5648 0.0000
vt 0.7805 0.5676 0.0000
vt 0.7780 0.3991 0.0000
vt 0.6349 0.5702 0.0000
vt 0.6327 0.4019 0.0000
vt 0.4880 0.5713 0.0000
vt 0.4878 0.4028 0.0000
vt 0.8597 0.7061 0.0000
vt 1.0198 0.7011 0.0000
vt 0.9429 0.8430 0.0000
vt 0.6996 0.7070 0.0000
vt 0.7816 0.8459 0.0000
# 24 texture coords

g Sphere009
usemtl Material__25
s 1
f 113/193/113 114/194/114 115/195/115 
f 113/193/113 115/195/115 116/196/116 
f 113/193/113 116/196/116 117/197/117 
f 113/193/113 117/197/117 118/198/118 
f 113/193/113 118/198/118 119/199/119 
f 113/193/113 119/199/119 114/194/114 
f 114/200/114 120/201/120 121/202/121 
f 114/200/114 121/202/121 115/195/115 
f 115/195/115 121/202/121 122/203/122 
f 115/195/115 122/203/122 116/196/116 
f 116/204/116 122/205/122 123/206/123 
f 116/204/116 123/206/123 117/207/117 
f 117/207/117 123/206/123 124/208/124 
f 117/207/117 124/208/124 118/209/118 
f 118/209/118 124/208/124 125/210/125 
f 118/209/118 125/210/125 119/211/119 
f 119/211/119 125/210/125 120/201/120 
f 119/211/119 120/201/120 114/200/114 
f 126/212/126 121/213/121 120/214/120 
f 126/212/126 122/205/122 121/213/121 
f 126/212/126 123/206/123 122/205/122 
f 126/212/126 124/215/124 123/206/123 
f 126/212/126 125/216/125 124/215/124 
f 126/212/126 120/214/120 125/216/125 
# 24 faces

