# 3ds Max Wavefront OBJ Exporter v0.97b - (c)2007 guruware
# File Created: 04.04.2019 17:44:26

mtllib model5.mtl

#
# object Sphere001
#

v  73.5480 13.6200 2.9531
v  64.0186 14.3867 -13.6057
v  65.1687 28.6808 -5.3263
v  65.1687 28.6808 11.2325
v  64.0186 14.3867 19.5119
v  62.8685 0.0925 11.2325
v  62.8685 0.0925 -5.3263
v  44.9598 15.9201 -13.6057
v  46.1098 30.2142 -5.3263
v  46.1098 30.2142 11.2325
v  44.9598 15.9201 19.5119
v  43.8097 1.6260 11.2325
v  43.8097 1.6260 -5.3263
v  35.4303 16.6868 2.9531
# 14 vertices

vn 0.9968 -0.0802 -0.0000
vn 0.4399 -0.0354 -0.8973
vn 0.5022 0.7392 -0.4487
vn 0.5022 0.7392 0.4487
vn 0.4399 -0.0354 0.8973
vn 0.3776 -0.8100 0.4487
vn 0.3776 -0.8100 -0.4487
vn -0.4399 0.0354 -0.8973
vn -0.3776 0.8100 -0.4487
vn -0.3776 0.8100 0.4487
vn -0.4399 0.0354 0.8973
vn -0.5022 -0.7392 0.4487
vn -0.5022 -0.7392 -0.4487
vn -0.9968 0.0802 -0.0000
# 14 vertex normals

vt 0.1277 0.2577 0.0000
vt 0.2877 0.2674 0.0000
vt 0.1979 0.3997 0.0000
vt 0.0441 0.3943 0.0000
vt -0.0321 0.2498 0.0000
vt 0.0565 0.1143 0.0000
vt 0.2165 0.1239 0.0000
vt 0.3428 0.4021 0.0000
vt 0.3411 0.5706 0.0000
vt 0.1942 0.5683 0.0000
vt 0.0473 0.5648 0.0000
vt 0.9253 0.3964 0.0000
vt 0.9338 0.5648 0.0000
vt 0.7805 0.5676 0.0000
vt 0.7780 0.3991 0.0000
vt 0.6349 0.5702 0.0000
vt 0.6327 0.4019 0.0000
vt 0.4880 0.5713 0.0000
vt 0.4878 0.4028 0.0000
vt 0.8597 0.7061 0.0000
vt 1.0198 0.7011 0.0000
vt 0.9429 0.8430 0.0000
vt 0.6996 0.7070 0.0000
vt 0.7816 0.8459 0.0000
# 24 texture coords

g Sphere001
usemtl Material__25
s 1
f 1/1/1 2/2/2 3/3/3 
f 1/1/1 3/3/3 4/4/4 
f 1/1/1 4/4/4 5/5/5 
f 1/1/1 5/5/5 6/6/6 
f 1/1/1 6/6/6 7/7/7 
f 1/1/1 7/7/7 2/2/2 
f 2/8/2 8/9/8 9/10/9 
f 2/8/2 9/10/9 3/3/3 
f 3/3/3 9/10/9 10/11/10 
f 3/3/3 10/11/10 4/4/4 
f 4/12/4 10/13/10 11/14/11 
f 4/12/4 11/14/11 5/15/5 
f 5/15/5 11/14/11 12/16/12 
f 5/15/5 12/16/12 6/17/6 
f 6/17/6 12/16/12 13/18/13 
f 6/17/6 13/18/13 7/19/7 
f 7/19/7 13/18/13 8/9/8 
f 7/19/7 8/9/8 2/8/2 
f 14/20/14 9/21/9 8/22/8 
f 14/20/14 10/13/10 9/21/9 
f 14/20/14 11/14/11 10/13/10 
f 14/20/14 12/23/12 11/14/11 
f 14/20/14 13/24/13 12/23/12 
f 14/20/14 8/22/8 13/24/13 
# 24 faces

#
# object Sphere002
#

v  -1.7574 27.2505 70.2226
v  0.5134 37.8812 54.4929
v  -13.3200 28.7987 55.0734
v  -13.2103 14.0135 62.5285
v  0.7328 8.3107 69.4030
v  14.5663 17.3932 68.8226
v  14.4566 32.1784 61.3675
v  5.2745 29.5719 37.9436
v  -8.5590 20.4895 38.5241
v  -8.4493 5.7042 45.9792
v  5.4939 0.0015 52.8537
v  19.3273 9.0839 52.2732
v  19.2177 23.8692 44.8182
v  7.7647 10.6321 37.1240
# 14 vertices

vn -0.2490 0.4346 0.8655
vn -0.1158 0.9930 -0.0220
vn -0.8655 0.5008 0.0094
vn -0.8595 -0.3004 0.4134
vn -0.1039 -0.6094 0.7860
vn 0.6457 -0.1172 0.7545
vn 0.6398 0.6840 0.3505
vn 0.1039 0.6094 -0.7860
vn -0.6457 0.1172 -0.7545
vn -0.6398 -0.6840 -0.3505
vn 0.1158 -0.9930 0.0220
vn 0.8655 -0.5008 -0.0094
vn 0.8595 0.3004 -0.4134
vn 0.2490 -0.4346 -0.8655
# 14 vertex normals

vt 0.1277 0.2577 0.0000
vt 0.2877 0.2674 0.0000
vt 0.1979 0.3997 0.0000
vt 0.0441 0.3943 0.0000
vt -0.0321 0.2498 0.0000
vt 0.0565 0.1143 0.0000
vt 0.2165 0.1239 0.0000
vt 0.3428 0.4021 0.0000
vt 0.3411 0.5706 0.0000
vt 0.1942 0.5683 0.0000
vt 0.0473 0.5648 0.0000
vt 0.9253 0.3964 0.0000
vt 0.9338 0.5648 0.0000
vt 0.7805 0.5676 0.0000
vt 0.7780 0.3991 0.0000
vt 0.6349 0.5702 0.0000
vt 0.6327 0.4019 0.0000
vt 0.4880 0.5713 0.0000
vt 0.4878 0.4028 0.0000
vt 0.8597 0.7061 0.0000
vt 1.0198 0.7011 0.0000
vt 0.9429 0.8430 0.0000
vt 0.6996 0.7070 0.0000
vt 0.7816 0.8459 0.0000
# 24 texture coords

g Sphere002
usemtl Material__25
s 1
f 15/25/15 16/26/16 17/27/17 
f 15/25/15 17/27/17 18/28/18 
f 15/25/15 18/28/18 19/29/19 
f 15/25/15 19/29/19 20/30/20 
f 15/25/15 20/30/20 21/31/21 
f 15/25/15 21/31/21 16/26/16 
f 16/32/16 22/33/22 23/34/23 
f 16/32/16 23/34/23 17/27/17 
f 17/27/17 23/34/23 24/35/24 
f 17/27/17 24/35/24 18/28/18 
f 18/36/18 24/37/24 25/38/25 
f 18/36/18 25/38/25 19/39/19 
f 19/39/19 25/38/25 26/40/26 
f 19/39/19 26/40/26 20/41/20 
f 20/41/20 26/40/26 27/42/27 
f 20/41/20 27/42/27 21/43/21 
f 21/43/21 27/42/27 22/33/22 
f 21/43/21 22/33/22 16/32/16 
f 28/44/28 23/45/23 22/46/22 
f 28/44/28 24/37/24 23/45/23 
f 28/44/28 25/38/25 24/37/24 
f 28/44/28 26/47/26 25/38/25 
f 28/44/28 27/48/27 26/47/26 
f 28/44/28 22/46/22 27/48/27 
# 24 faces

#
# object Sphere003
#

v  3.2883 35.6274 -55.6082
v  4.8911 28.2899 -66.9411
v  -5.0138 26.2559 -60.9087
v  -5.0086 27.0017 -49.1580
v  4.9015 29.7816 -43.4398
v  14.8063 31.8155 -49.4723
v  14.8011 31.0697 -61.2229
v  8.1072 15.1064 -66.1058
v  -1.7977 13.0724 -60.0733
v  -1.7925 13.8182 -48.3226
v  8.1175 16.5981 -42.6045
v  18.0224 18.6321 -48.6369
v  18.0172 17.8862 -60.3876
v  9.7204 9.2605 -53.9374
# 14 vertices

vn -0.2365 0.9697 -0.0614
vn -0.1048 0.3711 -0.9227
vn -0.8597 0.2161 -0.4629
vn -0.8593 0.2729 0.4326
vn -0.1040 0.4848 0.8684
vn 0.6509 0.6398 0.4087
vn 0.6505 0.5830 -0.4869
vn 0.1040 -0.4848 -0.8684
vn -0.6509 -0.6398 -0.4087
vn -0.6505 -0.5830 0.4869
vn 0.1048 -0.3711 0.9227
vn 0.8597 -0.2161 0.4629
vn 0.8593 -0.2729 -0.4326
vn 0.2365 -0.9697 0.0614
# 14 vertex normals

vt 0.1277 0.2577 0.0000
vt 0.2877 0.2674 0.0000
vt 0.1979 0.3997 0.0000
vt 0.0441 0.3943 0.0000
vt -0.0321 0.2498 0.0000
vt 0.0565 0.1143 0.0000
vt 0.2165 0.1239 0.0000
vt 0.3428 0.4021 0.0000
vt 0.3411 0.5706 0.0000
vt 0.1942 0.5683 0.0000
vt 0.0473 0.5648 0.0000
vt 0.9253 0.3964 0.0000
vt 0.9338 0.5648 0.0000
vt 0.7805 0.5676 0.0000
vt 0.7780 0.3991 0.0000
vt 0.6349 0.5702 0.0000
vt 0.6327 0.4019 0.0000
vt 0.4880 0.5713 0.0000
vt 0.4878 0.4028 0.0000
vt 0.8597 0.7061 0.0000
vt 1.0198 0.7011 0.0000
vt 0.9429 0.8430 0.0000
vt 0.6996 0.7070 0.0000
vt 0.7816 0.8459 0.0000
# 24 texture coords

g Sphere003
usemtl Material__25
s 1
f 29/49/29 30/50/30 31/51/31 
f 29/49/29 31/51/31 32/52/32 
f 29/49/29 32/52/32 33/53/33 
f 29/49/29 33/53/33 34/54/34 
f 29/49/29 34/54/34 35/55/35 
f 29/49/29 35/55/35 30/50/30 
f 30/56/30 36/57/36 37/58/37 
f 30/56/30 37/58/37 31/51/31 
f 31/51/31 37/58/37 38/59/38 
f 31/51/31 38/59/38 32/52/32 
f 32/60/32 38/61/38 39/62/39 
f 32/60/32 39/62/39 33/63/33 
f 33/63/33 39/62/39 40/64/40 
f 33/63/33 40/64/40 34/65/34 
f 34/65/34 40/64/40 41/66/41 
f 34/65/34 41/66/41 35/67/35 
f 35/67/35 41/66/41 36/57/36 
f 35/67/35 36/57/36 30/56/30 
f 42/68/42 37/69/37 36/70/36 
f 42/68/42 38/61/38 37/69/37 
f 42/68/42 39/62/39 38/61/38 
f 42/68/42 40/71/40 39/62/39 
f 42/68/42 41/72/41 40/71/40 
f 42/68/42 36/70/36 41/72/41 
# 24 faces

#
# object Sphere004
#

v  -27.1486 17.4851 -15.2950
v  -34.7072 37.9722 -20.3256
v  -17.1772 37.2855 -12.0281
v  -13.2082 23.6022 1.1489
v  -26.7691 10.6056 6.0284
v  -44.2990 11.2922 -2.2692
v  -48.2681 24.9755 -15.4462
v  -41.8862 51.5797 -4.0328
v  -24.3562 50.8931 4.2647
v  -20.3872 37.2098 17.4417
v  -33.9481 24.2131 22.3212
v  -51.4780 24.8998 14.0236
v  -55.4470 38.5831 0.8466
v  -41.5066 44.7002 17.2906
# 14 vertices

vn 0.3204 -0.6072 -0.7271
vn -0.0421 0.3647 -0.9302
vn 0.7684 0.3330 -0.5465
vn 0.9520 -0.2997 0.0628
vn 0.3249 -0.9007 0.2884
vn -0.4857 -0.8689 -0.0953
vn -0.6692 -0.2362 -0.7045
vn -0.3249 0.9007 -0.2884
vn 0.4857 0.8689 0.0953
vn 0.6692 0.2362 0.7045
vn 0.0421 -0.3647 0.9302
vn -0.7684 -0.3330 0.5465
vn -0.9520 0.2997 -0.0628
vn -0.3204 0.6072 0.7271
# 14 vertex normals

vt 0.1277 0.2577 0.0000
vt 0.2877 0.2674 0.0000
vt 0.1979 0.3997 0.0000
vt 0.0441 0.3943 0.0000
vt -0.0321 0.2498 0.0000
vt 0.0565 0.1143 0.0000
vt 0.2165 0.1239 0.0000
vt 0.3428 0.4021 0.0000
vt 0.3411 0.5706 0.0000
vt 0.1942 0.5683 0.0000
vt 0.0473 0.5648 0.0000
vt 0.9253 0.3964 0.0000
vt 0.9338 0.5648 0.0000
vt 0.7805 0.5676 0.0000
vt 0.7780 0.3991 0.0000
vt 0.6349 0.5702 0.0000
vt 0.6327 0.4019 0.0000
vt 0.4880 0.5713 0.0000
vt 0.4878 0.4028 0.0000
vt 0.8597 0.7061 0.0000
vt 1.0198 0.7011 0.0000
vt 0.9429 0.8430 0.0000
vt 0.6996 0.7070 0.0000
vt 0.7816 0.8459 0.0000
# 24 texture coords

g Sphere004
usemtl Material__25
s 1
f 43/73/43 44/74/44 45/75/45 
f 43/73/43 45/75/45 46/76/46 
f 43/73/43 46/76/46 47/77/47 
f 43/73/43 47/77/47 48/78/48 
f 43/73/43 48/78/48 49/79/49 
f 43/73/43 49/79/49 44/74/44 
f 44/80/44 50/81/50 51/82/51 
f 44/80/44 51/82/51 45/75/45 
f 45/75/45 51/82/51 52/83/52 
f 45/75/45 52/83/52 46/76/46 
f 46/84/46 52/85/52 53/86/53 
f 46/84/46 53/86/53 47/87/47 
f 47/87/47 53/86/53 54/88/54 
f 47/87/47 54/88/54 48/89/48 
f 48/89/48 54/88/54 55/90/55 
f 48/89/48 55/90/55 49/91/49 
f 49/91/49 55/90/55 50/81/50 
f 49/91/49 50/81/50 44/80/44 
f 56/92/56 51/93/51 50/94/50 
f 56/92/56 52/85/52 51/93/51 
f 56/92/56 53/86/53 52/85/52 
f 56/92/56 54/95/54 53/86/53 
f 56/92/56 55/96/55 54/95/54 
f 56/92/56 50/94/50 55/96/55 
# 24 faces

#
# object Sphere005
#

v  22.6282 31.8014 47.9254
v  24.5293 25.2748 36.1511
v  14.7393 22.4231 42.0382
v  14.7393 22.4231 53.8125
v  24.5293 25.2748 59.6996
v  34.3192 28.1265 53.8125
v  34.3192 28.1265 42.0382
v  28.3315 12.2215 36.1511
v  18.5415 9.3698 42.0382
v  18.5415 9.3698 53.8125
v  28.3315 12.2215 59.6996
v  38.1215 15.0732 53.8125
v  38.1215 15.0732 42.0382
v  30.2326 5.6949 47.9254
# 14 vertices

vn -0.2797 0.9601 -0.0000
vn -0.1234 0.4237 -0.8973
vn -0.8695 0.2064 -0.4487
vn -0.8695 0.2064 0.4487
vn -0.1234 0.4237 0.8973
vn 0.6227 0.6411 0.4487
vn 0.6227 0.6411 -0.4487
vn 0.1234 -0.4237 -0.8973
vn -0.6227 -0.6411 -0.4487
vn -0.6227 -0.6411 0.4487
vn 0.1234 -0.4237 0.8973
vn 0.8695 -0.2064 0.4487
vn 0.8695 -0.2064 -0.4487
vn 0.2797 -0.9601 -0.0000
# 14 vertex normals

vt 0.1277 0.2577 0.0000
vt 0.2877 0.2674 0.0000
vt 0.1979 0.3997 0.0000
vt 0.0441 0.3943 0.0000
vt -0.0321 0.2498 0.0000
vt 0.0565 0.1143 0.0000
vt 0.2165 0.1239 0.0000
vt 0.3428 0.4021 0.0000
vt 0.3411 0.5706 0.0000
vt 0.1942 0.5683 0.0000
vt 0.0473 0.5648 0.0000
vt 0.9253 0.3964 0.0000
vt 0.9338 0.5648 0.0000
vt 0.7805 0.5676 0.0000
vt 0.7780 0.3991 0.0000
vt 0.6349 0.5702 0.0000
vt 0.6327 0.4019 0.0000
vt 0.4880 0.5713 0.0000
vt 0.4878 0.4028 0.0000
vt 0.8597 0.7061 0.0000
vt 1.0198 0.7011 0.0000
vt 0.9429 0.8430 0.0000
vt 0.6996 0.7070 0.0000
vt 0.7816 0.8459 0.0000
# 24 texture coords

g Sphere005
usemtl Material__25
s 1
f 57/97/57 58/98/58 59/99/59 
f 57/97/57 59/99/59 60/100/60 
f 57/97/57 60/100/60 61/101/61 
f 57/97/57 61/101/61 62/102/62 
f 57/97/57 62/102/62 63/103/63 
f 57/97/57 63/103/63 58/98/58 
f 58/104/58 64/105/64 65/106/65 
f 58/104/58 65/106/65 59/99/59 
f 59/99/59 65/106/65 66/107/66 
f 59/99/59 66/107/66 60/100/60 
f 60/108/60 66/109/66 67/110/67 
f 60/108/60 67/110/67 61/111/61 
f 61/111/61 67/110/67 68/112/68 
f 61/111/61 68/112/68 62/113/62 
f 62/113/62 68/112/68 69/114/69 
f 62/113/62 69/114/69 63/115/63 
f 63/115/63 69/114/69 64/105/64 
f 63/115/63 64/105/64 58/104/58 
f 70/116/70 65/117/65 64/118/64 
f 70/116/70 66/109/66 65/117/65 
f 70/116/70 67/110/67 66/109/66 
f 70/116/70 68/119/68 67/110/67 
f 70/116/70 69/120/69 68/119/68 
f 70/116/70 64/118/64 69/120/69 
# 24 faces

#
# object Sphere006
#

v  -12.2253 43.9442 5.7734
v  -3.6723 54.0538 -8.0191
v  -8.1683 38.6616 -12.1494
v  -7.7001 26.5815 -0.8337
v  -2.7360 29.8936 14.6124
v  1.7600 45.2858 18.7427
v  1.2919 57.3659 7.4270
v  14.3700 50.1129 -12.9726
v  9.8740 34.7208 -17.1029
v  10.3421 22.6407 -5.7872
v  15.3063 25.9528 9.6589
v  19.8023 41.3450 13.7892
v  19.3341 53.4250 2.4735
v  23.8593 36.0624 -4.1336
# 14 vertices

vn -0.9436 0.2061 0.2591
vn -0.4418 0.7456 -0.4989
vn -0.6855 -0.0885 -0.7227
vn -0.6601 -0.7432 -0.1095
vn -0.3911 -0.5637 0.7276
vn -0.1474 0.2704 0.9514
vn -0.1728 0.9251 0.3382
vn 0.3911 0.5637 -0.7276
vn 0.1474 -0.2704 -0.9514
vn 0.1728 -0.9251 -0.3382
vn 0.4418 -0.7456 0.4989
vn 0.6855 0.0885 0.7227
vn 0.6601 0.7432 0.1095
vn 0.9436 -0.2061 -0.2591
# 14 vertex normals

vt 0.1277 0.2577 0.0000
vt 0.2877 0.2674 0.0000
vt 0.1979 0.3997 0.0000
vt 0.0441 0.3943 0.0000
vt -0.0321 0.2498 0.0000
vt 0.0565 0.1143 0.0000
vt 0.2165 0.1239 0.0000
vt 0.3428 0.4021 0.0000
vt 0.3411 0.5706 0.0000
vt 0.1942 0.5683 0.0000
vt 0.0473 0.5648 0.0000
vt 0.9253 0.3964 0.0000
vt 0.9338 0.5648 0.0000
vt 0.7805 0.5676 0.0000
vt 0.7780 0.3991 0.0000
vt 0.6349 0.5702 0.0000
vt 0.6327 0.4019 0.0000
vt 0.4880 0.5713 0.0000
vt 0.4878 0.4028 0.0000
vt 0.8597 0.7061 0.0000
vt 1.0198 0.7011 0.0000
vt 0.9429 0.8430 0.0000
vt 0.6996 0.7070 0.0000
vt 0.7816 0.8459 0.0000
# 24 texture coords

g Sphere006
usemtl Material__25
s 1
f 71/121/71 72/122/72 73/123/73 
f 71/121/71 73/123/73 74/124/74 
f 71/121/71 74/124/74 75/125/75 
f 71/121/71 75/125/75 76/126/76 
f 71/121/71 76/126/76 77/127/77 
f 71/121/71 77/127/77 72/122/72 
f 72/128/72 78/129/78 79/130/79 
f 72/128/72 79/130/79 73/123/73 
f 73/123/73 79/130/79 80/131/80 
f 73/123/73 80/131/80 74/124/74 
f 74/132/74 80/133/80 81/134/81 
f 74/132/74 81/134/81 75/135/75 
f 75/135/75 81/134/81 82/136/82 
f 75/135/75 82/136/82 76/137/76 
f 76/137/76 82/136/82 83/138/83 
f 76/137/76 83/138/83 77/139/77 
f 77/139/77 83/138/83 78/129/78 
f 77/139/77 78/129/78 72/128/72 
f 84/140/84 79/141/79 78/142/78 
f 84/140/84 80/133/80 79/141/79 
f 84/140/84 81/134/81 80/133/80 
f 84/140/84 82/143/82 81/134/81 
f 84/140/84 83/144/83 82/143/82 
f 84/140/84 78/142/78 83/144/83 
# 24 faces

#
# object Sphere007
#

v  -40.5935 17.9725 36.6076
v  -44.5908 17.6706 27.3550
v  -47.3458 11.4839 32.8682
v  -41.8890 8.2291 38.8589
v  -33.6770 11.1611 39.3365
v  -30.9220 17.3477 33.8234
v  -36.3788 20.6025 27.8326
v  -41.6716 10.5572 20.8314
v  -44.4267 4.3705 26.3445
v  -38.9698 1.1157 32.3353
v  -30.7579 4.0477 32.8129
v  -28.0028 10.2343 27.2997
v  -33.4597 13.4891 21.3090
v  -34.7552 3.7457 23.5603
# 14 vertices

vn -0.2895 0.7054 0.6470
vn -0.6885 0.6458 -0.3301
vn -0.9716 0.0101 0.2364
vn -0.4109 -0.3244 0.8520
vn 0.4330 -0.0231 0.9011
vn 0.7161 0.6126 0.3346
vn 0.1553 0.9471 -0.2810
vn -0.4330 0.0231 -0.9011
vn -0.7161 -0.6126 -0.3346
vn -0.1553 -0.9471 0.2810
vn 0.6885 -0.6458 0.3301
vn 0.9716 -0.0101 -0.2364
vn 0.4109 0.3244 -0.8520
vn 0.2895 -0.7054 -0.6470
# 14 vertex normals

vt 0.1277 0.2577 0.0000
vt 0.2877 0.2674 0.0000
vt 0.1979 0.3997 0.0000
vt 0.0441 0.3943 0.0000
vt -0.0321 0.2498 0.0000
vt 0.0565 0.1143 0.0000
vt 0.2165 0.1239 0.0000
vt 0.3428 0.4021 0.0000
vt 0.3411 0.5706 0.0000
vt 0.1942 0.5683 0.0000
vt 0.0473 0.5648 0.0000
vt 0.9253 0.3964 0.0000
vt 0.9338 0.5648 0.0000
vt 0.7805 0.5676 0.0000
vt 0.7780 0.3991 0.0000
vt 0.6349 0.5702 0.0000
vt 0.6327 0.4019 0.0000
vt 0.4880 0.5713 0.0000
vt 0.4878 0.4028 0.0000
vt 0.8597 0.7061 0.0000
vt 1.0198 0.7011 0.0000
vt 0.9429 0.8430 0.0000
vt 0.6996 0.7070 0.0000
vt 0.7816 0.8459 0.0000
# 24 texture coords

g Sphere007
usemtl Material__25
s 1
f 85/145/85 86/146/86 87/147/87 
f 85/145/85 87/147/87 88/148/88 
f 85/145/85 88/148/88 89/149/89 
f 85/145/85 89/149/89 90/150/90 
f 85/145/85 90/150/90 91/151/91 
f 85/145/85 91/151/91 86/146/86 
f 86/152/86 92/153/92 93/154/93 
f 86/152/86 93/154/93 87/147/87 
f 87/147/87 93/154/93 94/155/94 
f 87/147/87 94/155/94 88/148/88 
f 88/156/88 94/157/94 95/158/95 
f 88/156/88 95/158/95 89/159/89 
f 89/159/89 95/158/95 96/160/96 
f 89/159/89 96/160/96 90/161/90 
f 90/161/90 96/160/96 97/162/97 
f 90/161/90 97/162/97 91/163/91 
f 91/163/91 97/162/97 92/153/92 
f 91/163/91 92/153/92 86/152/86 
f 98/164/98 93/165/93 92/166/92 
f 98/164/98 94/157/94 93/165/93 
f 98/164/98 95/158/95 94/157/94 
f 98/164/98 96/167/96 95/158/95 
f 98/164/98 97/168/97 96/167/96 
f 98/164/98 92/166/92 97/168/97 
# 24 faces

#
# object Sphere008
#

v  35.1284 30.4463 -44.3453
v  36.9694 16.4926 -46.7800
v  26.5788 19.5633 -40.8114
v  26.5341 29.1621 -33.0090
v  36.8800 35.6901 -31.1750
v  47.2706 32.6194 -37.1435
v  47.3153 23.0207 -44.9460
v  40.5621 7.7828 -36.0444
v  30.1715 10.8535 -30.0758
v  30.1269 20.4522 -22.2734
v  40.4727 26.9803 -20.4394
v  50.8633 23.9096 -26.4079
v  50.9080 14.3108 -34.2104
v  42.3138 13.0266 -22.8741
# 14 vertices

vn -0.2515 0.6098 -0.7516
vn -0.1078 -0.4272 -0.8977
vn -0.8615 -0.2044 -0.4647
vn -0.8648 0.4919 0.1013
vn -0.1142 0.9654 0.2343
vn 0.6395 0.7427 -0.1987
vn 0.6427 0.0464 -0.7647
vn 0.1142 -0.9654 -0.2343
vn -0.6395 -0.7427 0.1987
vn -0.6427 -0.0464 0.7647
vn 0.1078 0.4272 0.8977
vn 0.8615 0.2044 0.4647
vn 0.8648 -0.4919 -0.1013
vn 0.2515 -0.6098 0.7516
# 14 vertex normals

vt 0.1277 0.2577 0.0000
vt 0.2877 0.2674 0.0000
vt 0.1979 0.3997 0.0000
vt 0.0441 0.3943 0.0000
vt -0.0321 0.2498 0.0000
vt 0.0565 0.1143 0.0000
vt 0.2165 0.1239 0.0000
vt 0.3428 0.4021 0.0000
vt 0.3411 0.5706 0.0000
vt 0.1942 0.5683 0.0000
vt 0.0473 0.5648 0.0000
vt 0.9253 0.3964 0.0000
vt 0.9338 0.5648 0.0000
vt 0.7805 0.5676 0.0000
vt 0.7780 0.3991 0.0000
vt 0.6349 0.5702 0.0000
vt 0.6327 0.4019 0.0000
vt 0.4880 0.5713 0.0000
vt 0.4878 0.4028 0.0000
vt 0.8597 0.7061 0.0000
vt 1.0198 0.7011 0.0000
vt 0.9429 0.8430 0.0000
vt 0.6996 0.7070 0.0000
vt 0.7816 0.8459 0.0000
# 24 texture coords

g Sphere008
usemtl Material__25
s 1
f 99/169/99 100/170/100 101/171/101 
f 99/169/99 101/171/101 102/172/102 
f 99/169/99 102/172/102 103/173/103 
f 99/169/99 103/173/103 104/174/104 
f 99/169/99 104/174/104 105/175/105 
f 99/169/99 105/175/105 100/170/100 
f 100/176/100 106/177/106 107/178/107 
f 100/176/100 107/178/107 101/171/101 
f 101/171/101 107/178/107 108/179/108 
f 101/171/101 108/179/108 102/172/102 
f 102/180/102 108/181/108 109/182/109 
f 102/180/102 109/182/109 103/183/103 
f 103/183/103 109/182/109 110/184/110 
f 103/183/103 110/184/110 104/185/104 
f 104/185/104 110/184/110 111/186/111 
f 104/185/104 111/186/111 105/187/105 
f 105/187/105 111/186/111 106/177/106 
f 105/187/105 106/177/106 100/176/100 
f 112/188/112 107/189/107 106/190/106 
f 112/188/112 108/181/108 107/189/107 
f 112/188/112 109/182/109 108/181/108 
f 112/188/112 110/191/110 109/182/109 
f 112/188/112 111/192/111 110/191/110 
f 112/188/112 106/190/106 111/192/111 
# 24 faces

#
# object Sphere009
#

v  -65.2206 12.2173 -27.0278
v  -57.6046 2.9459 -33.4219
v  -60.4628 0.3961 -22.2880
v  -61.4896 9.0300 -14.3485
v  -59.6584 20.2137 -17.5429
v  -56.8003 22.7636 -28.6768
v  -55.7734 14.1297 -36.6163
v  -44.4264 1.6710 -30.3309
v  -47.2845 -0.8789 -19.1971
v  -48.3114 7.7550 -11.2576
v  -46.4801 18.9387 -14.4520
v  -43.6220 21.4886 -25.5858
v  -42.5952 12.8547 -33.5253
v  -38.8642 9.6674 -20.8460
# 14 vertices

vn -0.9693 0.0938 -0.2273
vn -0.3495 -0.6166 -0.7054
vn -0.5673 -0.8110 0.1431
vn -0.6456 -0.1529 0.7482
vn -0.5060 0.6994 0.5048
vn -0.2882 0.8937 -0.3438
vn -0.2100 0.2357 -0.9489
vn 0.5060 -0.6994 -0.5048
vn 0.2882 -0.8937 0.3438
vn 0.2100 -0.2357 0.9489
vn 0.3495 0.6166 0.7054
vn 0.5673 0.8110 -0.1431
vn 0.6456 0.1529 -0.7482
vn 0.9693 -0.0938 0.2273
# 14 vertex normals

vt 0.1277 0.2577 0.0000
vt 0.2877 0.2674 0.0000
vt 0.1979 0.3997 0.0000
vt 0.0441 0.3943 0.0000
vt -0.0321 0.2498 0.0000
vt 0.0565 0.1143 0.0000
vt 0.2165 0.1239 0.0000
vt 0.3428 0.4021 0.0000
vt 0.3411 0.5706 0.0000
vt 0.1942 0.5683 0.0000
vt 0.0473 0.5648 0.0000
vt 0.9253 0.3964 0.0000
vt 0.9338 0.5648 0.0000
vt 0.7805 0.5676 0.0000
vt 0.7780 0.3991 0.0000
vt 0.6349 0.5702 0.0000
vt 0.6327 0.4019 0.0000
vt 0.4880 0.5713 0.0000
vt 0.4878 0.4028 0.0000
vt 0.8597 0.7061 0.0000
vt 1.0198 0.7011 0.0000
vt 0.9429 0.8430 0.0000
vt 0.6996 0.7070 0.0000
vt 0.7816 0.8459 0.0000
# 24 texture coords

g Sphere009
usemtl Material__25
s 1
f 113/193/113 114/194/114 115/195/115 
f 113/193/113 115/195/115 116/196/116 
f 113/193/113 116/196/116 117/197/117 
f 113/193/113 117/197/117 118/198/118 
f 113/193/113 118/198/118 119/199/119 
f 113/193/113 119/199/119 114/194/114 
f 114/200/114 120/201/120 121/202/121 
f 114/200/114 121/202/121 115/195/115 
f 115/195/115 121/202/121 122/203/122 
f 115/195/115 122/203/122 116/196/116 
f 116/204/116 122/205/122 123/206/123 
f 116/204/116 123/206/123 117/207/117 
f 117/207/117 123/206/123 124/208/124 
f 117/207/117 124/208/124 118/209/118 
f 118/209/118 124/208/124 125/210/125 
f 118/209/118 125/210/125 119/211/119 
f 119/211/119 125/210/125 120/201/120 
f 119/211/119 120/201/120 114/200/114 
f 126/212/126 121/213/121 120/214/120 
f 126/212/126 122/205/122 121/213/121 
f 126/212/126 123/206/123 122/205/122 
f 126/212/126 124/215/124 123/206/123 
f 126/212/126 125/216/125 124/215/124 
f 126/212/126 120/214/120 125/216/125 
# 24 faces

