# 3ds Max Wavefront OBJ Exporter v0.97b - (c)2007 guruware
# File Created: 04.04.2019 17:44:26

mtllib model3.mtl

#
# object Sphere001
#

v  62.3283 19.3070 2.9531
v  53.0990 16.8133 -13.6057
v  49.3585 30.6572 -5.3263
v  49.3585 30.6572 11.2325
v  53.0990 16.8133 19.5119
v  56.8396 2.9694 11.2325
v  56.8396 2.9694 -5.3263
v  34.6405 11.8259 -13.6057
v  30.8999 25.6698 -5.3263
v  30.8999 25.6698 11.2325
v  34.6405 11.8259 19.5119
v  38.3810 -2.0180 11.2325
v  38.3810 -2.0180 -5.3263
v  25.4112 9.3322 2.9531
# 14 vertices

vn 0.9654 0.2608 -0.0000
vn 0.4261 0.1151 -0.8973
vn 0.2233 0.8653 -0.4487
vn 0.2233 0.8653 0.4487
vn 0.4261 0.1151 0.8973
vn 0.6288 -0.6351 0.4487
vn 0.6288 -0.6351 -0.4487
vn -0.4261 -0.1151 -0.8973
vn -0.6288 0.6351 -0.4487
vn -0.6288 0.6351 0.4487
vn -0.4261 -0.1151 0.8973
vn -0.2233 -0.8653 0.4487
vn -0.2233 -0.8653 -0.4487
vn -0.9654 -0.2608 -0.0000
# 14 vertex normals

vt 0.1277 0.2577 0.0000
vt 0.2877 0.2674 0.0000
vt 0.1979 0.3997 0.0000
vt 0.0441 0.3943 0.0000
vt -0.0321 0.2498 0.0000
vt 0.0565 0.1143 0.0000
vt 0.2165 0.1239 0.0000
vt 0.3428 0.4021 0.0000
vt 0.3411 0.5706 0.0000
vt 0.1942 0.5683 0.0000
vt 0.0473 0.5648 0.0000
vt 0.9253 0.3964 0.0000
vt 0.9338 0.5648 0.0000
vt 0.7805 0.5676 0.0000
vt 0.7780 0.3991 0.0000
vt 0.6349 0.5702 0.0000
vt 0.6327 0.4019 0.0000
vt 0.4880 0.5713 0.0000
vt 0.4878 0.4028 0.0000
vt 0.8597 0.7061 0.0000
vt 1.0198 0.7011 0.0000
vt 0.9429 0.8430 0.0000
vt 0.6996 0.7070 0.0000
vt 0.7816 0.8459 0.0000
# 24 texture coords

g Sphere001
usemtl Material__25
s 1
f 1/1/1 2/2/2 3/3/3 
f 1/1/1 3/3/3 4/4/4 
f 1/1/1 4/4/4 5/5/5 
f 1/1/1 5/5/5 6/6/6 
f 1/1/1 6/6/6 7/7/7 
f 1/1/1 7/7/7 2/2/2 
f 2/8/2 8/9/8 9/10/9 
f 2/8/2 9/10/9 3/3/3 
f 3/3/3 9/10/9 10/11/10 
f 3/3/3 10/11/10 4/4/4 
f 4/12/4 10/13/10 11/14/11 
f 4/12/4 11/14/11 5/15/5 
f 5/15/5 11/14/11 12/16/12 
f 5/15/5 12/16/12 6/17/6 
f 6/17/6 12/16/12 13/18/13 
f 6/17/6 13/18/13 7/19/7 
f 7/19/7 13/18/13 8/9/8 
f 7/19/7 8/9/8 2/8/2 
f 14/20/14 9/21/9 8/22/8 
f 14/20/14 10/13/10 9/21/9 
f 14/20/14 11/14/11 10/13/10 
f 14/20/14 12/23/12 11/14/11 
f 14/20/14 13/24/13 12/23/12 
f 14/20/14 8/22/8 13/24/13 
# 24 faces

#
# object Sphere002
#

v  -1.0297 33.2701 55.5252
v  1.5229 36.0965 36.7879
v  -12.3957 28.1845 41.0151
v  -12.5051 18.0422 54.1038
v  1.3040 15.8119 62.9653
v  15.2225 23.7238 58.7382
v  15.3320 33.8661 45.6494
v  6.4092 21.4647 25.4907
v  -7.5094 13.5528 29.7179
v  -7.6188 3.4105 42.8066
v  6.1903 1.1801 51.6682
v  20.1089 9.0920 47.4410
v  20.2183 19.2343 34.3523
v  8.7429 4.0065 32.9309
# 14 vertices

vn -0.2556 0.7652 0.5908
vn -0.1069 0.8874 -0.4485
vn -0.8611 0.4586 -0.2195
vn -0.8670 -0.0910 0.4898
vn -0.1187 -0.2119 0.9701
vn 0.6356 0.2169 0.7410
vn 0.6415 0.7665 0.0317
vn 0.1187 0.2119 -0.9701
vn -0.6356 -0.2169 -0.7410
vn -0.6415 -0.7665 -0.0317
vn 0.1069 -0.8874 0.4485
vn 0.8611 -0.4586 0.2195
vn 0.8670 0.0910 -0.4898
vn 0.2556 -0.7652 -0.5908
# 14 vertex normals

vt 0.1277 0.2577 0.0000
vt 0.2877 0.2674 0.0000
vt 0.1979 0.3997 0.0000
vt 0.0441 0.3943 0.0000
vt -0.0321 0.2498 0.0000
vt 0.0565 0.1143 0.0000
vt 0.2165 0.1239 0.0000
vt 0.3428 0.4021 0.0000
vt 0.3411 0.5706 0.0000
vt 0.1942 0.5683 0.0000
vt 0.0473 0.5648 0.0000
vt 0.9253 0.3964 0.0000
vt 0.9338 0.5648 0.0000
vt 0.7805 0.5676 0.0000
vt 0.7780 0.3991 0.0000
vt 0.6349 0.5702 0.0000
vt 0.6327 0.4019 0.0000
vt 0.4880 0.5713 0.0000
vt 0.4878 0.4028 0.0000
vt 0.8597 0.7061 0.0000
vt 1.0198 0.7011 0.0000
vt 0.9429 0.8430 0.0000
vt 0.6996 0.7070 0.0000
vt 0.7816 0.8459 0.0000
# 24 texture coords

g Sphere002
usemtl Material__25
s 1
f 15/25/15 16/26/16 17/27/17 
f 15/25/15 17/27/17 18/28/18 
f 15/25/15 18/28/18 19/29/19 
f 15/25/15 19/29/19 20/30/20 
f 15/25/15 20/30/20 21/31/21 
f 15/25/15 21/31/21 16/26/16 
f 16/32/16 22/33/22 23/34/23 
f 16/32/16 23/34/23 17/27/17 
f 17/27/17 23/34/23 24/35/24 
f 17/27/17 24/35/24 18/28/18 
f 18/36/18 24/37/24 25/38/25 
f 18/36/18 25/38/25 19/39/19 
f 19/39/19 25/38/25 26/40/26 
f 19/39/19 26/40/26 20/41/20 
f 20/41/20 26/40/26 27/42/27 
f 20/41/20 27/42/27 21/43/21 
f 21/43/21 27/42/27 22/33/22 
f 21/43/21 22/33/22 16/32/16 
f 28/44/28 23/45/23 22/46/22 
f 28/44/28 24/37/24 23/45/23 
f 28/44/28 25/38/25 24/37/24 
f 28/44/28 26/47/26 25/38/25 
f 28/44/28 27/48/27 26/47/26 
f 28/44/28 22/46/22 27/48/27 
# 24 faces

#
# object Sphere003
#

v  1.4597 34.9330 -41.4439
v  3.9820 28.6204 -53.2182
v  -5.4869 24.8369 -47.3311
v  -5.4869 24.8369 -35.5568
v  3.9820 28.6204 -29.6696
v  13.4510 32.4038 -35.5568
v  13.4510 32.4038 -47.3311
v  9.0266 15.9951 -53.2182
v  -0.4424 12.2117 -47.3311
v  -0.4424 12.2117 -35.5568
v  9.0266 15.9951 -29.6696
v  18.4955 19.7785 -35.5568
v  18.4956 19.7785 -47.3311
v  11.5489 9.6825 -41.4439
# 14 vertices

vn -0.3710 0.9286 -0.0000
vn -0.1638 0.4098 -0.8973
vn -0.8854 0.1215 -0.4487
vn -0.8854 0.1215 0.4487
vn -0.1638 0.4098 0.8973
vn 0.5579 0.6982 0.4487
vn 0.5579 0.6982 -0.4487
vn 0.1638 -0.4098 -0.8973
vn -0.5579 -0.6982 -0.4487
vn -0.5579 -0.6982 0.4487
vn 0.1638 -0.4098 0.8973
vn 0.8854 -0.1215 0.4487
vn 0.8854 -0.1215 -0.4487
vn 0.3710 -0.9286 -0.0000
# 14 vertex normals

vt 0.1277 0.2577 0.0000
vt 0.2877 0.2674 0.0000
vt 0.1979 0.3997 0.0000
vt 0.0441 0.3943 0.0000
vt -0.0321 0.2498 0.0000
vt 0.0565 0.1143 0.0000
vt 0.2165 0.1239 0.0000
vt 0.3428 0.4021 0.0000
vt 0.3411 0.5706 0.0000
vt 0.1942 0.5683 0.0000
vt 0.0473 0.5648 0.0000
vt 0.9253 0.3964 0.0000
vt 0.9338 0.5648 0.0000
vt 0.7805 0.5676 0.0000
vt 0.7780 0.3991 0.0000
vt 0.6349 0.5702 0.0000
vt 0.6327 0.4019 0.0000
vt 0.4880 0.5713 0.0000
vt 0.4878 0.4028 0.0000
vt 0.8597 0.7061 0.0000
vt 1.0198 0.7011 0.0000
vt 0.9429 0.8430 0.0000
vt 0.6996 0.7070 0.0000
vt 0.7816 0.8459 0.0000
# 24 texture coords

g Sphere003
usemtl Material__25
s 1
f 29/49/29 30/50/30 31/51/31 
f 29/49/29 31/51/31 32/52/32 
f 29/49/29 32/52/32 33/53/33 
f 29/49/29 33/53/33 34/54/34 
f 29/49/29 34/54/34 35/55/35 
f 29/49/29 35/55/35 30/50/30 
f 30/56/30 36/57/36 37/58/37 
f 30/56/30 37/58/37 31/51/31 
f 31/51/31 37/58/37 38/59/38 
f 31/51/31 38/59/38 32/52/32 
f 32/60/32 38/61/38 39/62/39 
f 32/60/32 39/62/39 33/63/33 
f 33/63/33 39/62/39 40/64/40 
f 33/63/33 40/64/40 34/65/34 
f 34/65/34 40/64/40 41/66/41 
f 34/65/34 41/66/41 35/67/35 
f 35/67/35 41/66/41 36/57/36 
f 35/67/35 36/57/36 30/56/30 
f 42/68/42 37/69/37 36/70/36 
f 42/68/42 38/61/38 37/69/37 
f 42/68/42 39/62/39 38/61/38 
f 42/68/42 40/71/40 39/62/39 
f 42/68/42 41/72/41 40/71/40 
f 42/68/42 36/70/36 41/72/41 
# 24 faces

#
# object Sphere004
#

v  -21.1554 15.4736 -15.1748
v  -21.7774 37.2632 -20.3696
v  -5.4024 31.0880 -11.9823
v  -6.0360 16.9519 1.2987
v  -23.0447 8.9909 6.1925
v  -39.4196 15.1661 -2.1947
v  -38.7860 29.3023 -15.4758
v  -24.2886 52.5701 -4.1970
v  -7.9136 46.3949 4.1903
v  -8.5472 32.2587 17.4713
v  -25.5559 24.2978 22.3651
v  -41.9308 30.4730 13.9779
v  -41.2972 44.6092 0.6968
v  -26.1778 46.0874 17.1704
# 14 vertices

vn 0.1121 -0.6831 -0.7217
vn 0.0788 0.3522 -0.9326
vn 0.8359 0.0666 -0.5448
vn 0.8066 -0.5870 0.0693
vn 0.0202 -0.9551 0.2956
vn -0.7370 -0.6696 -0.0922
vn -0.7077 -0.0159 -0.7063
vn -0.0202 0.9551 -0.2956
vn 0.7370 0.6696 0.0922
vn 0.7077 0.0159 0.7063
vn -0.0788 -0.3522 0.9326
vn -0.8359 -0.0666 0.5448
vn -0.8066 0.5870 -0.0693
vn -0.1121 0.6831 0.7217
# 14 vertex normals

vt 0.1277 0.2577 0.0000
vt 0.2877 0.2674 0.0000
vt 0.1979 0.3997 0.0000
vt 0.0441 0.3943 0.0000
vt -0.0321 0.2498 0.0000
vt 0.0565 0.1143 0.0000
vt 0.2165 0.1239 0.0000
vt 0.3428 0.4021 0.0000
vt 0.3411 0.5706 0.0000
vt 0.1942 0.5683 0.0000
vt 0.0473 0.5648 0.0000
vt 0.9253 0.3964 0.0000
vt 0.9338 0.5648 0.0000
vt 0.7805 0.5676 0.0000
vt 0.7780 0.3991 0.0000
vt 0.6349 0.5702 0.0000
vt 0.6327 0.4019 0.0000
vt 0.4880 0.5713 0.0000
vt 0.4878 0.4028 0.0000
vt 0.8597 0.7061 0.0000
vt 1.0198 0.7011 0.0000
vt 0.9429 0.8430 0.0000
vt 0.6996 0.7070 0.0000
vt 0.7816 0.8459 0.0000
# 24 texture coords

g Sphere004
usemtl Material__25
s 1
f 43/73/43 44/74/44 45/75/45 
f 43/73/43 45/75/45 46/76/46 
f 43/73/43 46/76/46 47/77/47 
f 43/73/43 47/77/47 48/78/48 
f 43/73/43 48/78/48 49/79/49 
f 43/73/43 49/79/49 44/74/44 
f 44/80/44 50/81/50 51/82/51 
f 44/80/44 51/82/51 45/75/45 
f 45/75/45 51/82/51 52/83/52 
f 45/75/45 52/83/52 46/76/46 
f 46/84/46 52/85/52 53/86/53 
f 46/84/46 53/86/53 47/87/47 
f 47/87/47 53/86/53 54/88/54 
f 47/87/47 54/88/54 48/89/48 
f 48/89/48 54/88/54 55/90/55 
f 48/89/48 55/90/55 49/91/49 
f 49/91/49 55/90/55 50/81/50 
f 49/91/49 50/81/50 44/80/44 
f 56/92/56 51/93/51 50/94/50 
f 56/92/56 52/85/52 51/93/51 
f 56/92/56 53/86/53 52/85/52 
f 56/92/56 54/95/54 53/86/53 
f 56/92/56 55/96/55 54/95/54 
f 56/92/56 50/94/50 55/96/55 
# 24 faces

#
# object Sphere005
#

v  18.6711 29.5409 42.2696
v  22.5507 23.9588 30.4953
v  14.1776 18.1394 36.3825
v  14.1776 18.1394 48.1568
v  22.5507 23.9588 54.0439
v  30.9238 29.7783 48.1568
v  30.9239 29.7783 36.3825
v  30.3100 12.7947 30.4953
v  21.9369 6.9752 36.3825
v  21.9369 6.9752 48.1568
v  30.3100 12.7947 54.0439
v  38.6831 18.6141 48.1568
v  38.6831 18.6141 36.3825
v  34.1897 7.2126 42.2696
# 14 vertices

vn -0.5707 0.8211 -0.0000
vn -0.2519 0.3624 -0.8973
vn -0.8900 -0.0811 -0.4487
vn -0.8900 -0.0811 0.4487
vn -0.2519 0.3624 0.8973
vn 0.3863 0.8059 0.4487
vn 0.3863 0.8059 -0.4487
vn 0.2519 -0.3624 -0.8973
vn -0.3863 -0.8059 -0.4487
vn -0.3863 -0.8059 0.4487
vn 0.2519 -0.3624 0.8973
vn 0.8900 0.0811 0.4487
vn 0.8900 0.0811 -0.4487
vn 0.5707 -0.8211 -0.0000
# 14 vertex normals

vt 0.1277 0.2577 0.0000
vt 0.2877 0.2674 0.0000
vt 0.1979 0.3997 0.0000
vt 0.0441 0.3943 0.0000
vt -0.0321 0.2498 0.0000
vt 0.0565 0.1143 0.0000
vt 0.2165 0.1239 0.0000
vt 0.3428 0.4021 0.0000
vt 0.3411 0.5706 0.0000
vt 0.1942 0.5683 0.0000
vt 0.0473 0.5648 0.0000
vt 0.9253 0.3964 0.0000
vt 0.9338 0.5648 0.0000
vt 0.7805 0.5676 0.0000
vt 0.7780 0.3991 0.0000
vt 0.6349 0.5702 0.0000
vt 0.6327 0.4019 0.0000
vt 0.4880 0.5713 0.0000
vt 0.4878 0.4028 0.0000
vt 0.8597 0.7061 0.0000
vt 1.0198 0.7011 0.0000
vt 0.9429 0.8430 0.0000
vt 0.6996 0.7070 0.0000
vt 0.7816 0.8459 0.0000
# 24 texture coords

g Sphere005
usemtl Material__25
s 1
f 57/97/57 58/98/58 59/99/59 
f 57/97/57 59/99/59 60/100/60 
f 57/97/57 60/100/60 61/101/61 
f 57/97/57 61/101/61 62/102/62 
f 57/97/57 62/102/62 63/103/63 
f 57/97/57 63/103/63 58/98/58 
f 58/104/58 64/105/64 65/106/65 
f 58/104/58 65/106/65 59/99/59 
f 59/99/59 65/106/65 66/107/66 
f 59/99/59 66/107/66 60/100/60 
f 60/108/60 66/109/66 67/110/67 
f 60/108/60 67/110/67 61/111/61 
f 61/111/61 67/110/67 68/112/68 
f 61/111/61 68/112/68 62/113/62 
f 62/113/62 68/112/68 69/114/69 
f 62/113/62 69/114/69 63/115/63 
f 63/115/63 69/114/69 64/105/64 
f 63/115/63 64/105/64 58/104/58 
f 70/116/70 65/117/65 64/118/64 
f 70/116/70 66/109/66 65/117/65 
f 70/116/70 67/110/67 66/109/66 
f 70/116/70 68/119/68 67/110/67 
f 70/116/70 69/120/69 68/119/68 
f 70/116/70 64/118/64 69/120/69 
# 24 faces

#
# object Sphere006
#

v  -11.7816 47.8667 4.1367
v  -2.4148 53.0330 -11.7115
v  -8.2835 37.5497 -11.5768
v  -8.8510 29.0337 2.6129
v  -3.5498 36.0010 16.6680
v  2.3189 51.4843 16.5334
v  2.8864 60.0003 2.3437
v  15.1837 46.3337 -15.0282
v  9.3151 30.8504 -14.8936
v  8.7476 22.3344 -0.7039
v  14.0488 29.3018 13.3512
v  19.9175 44.7851 13.2166
v  20.4850 53.3011 -0.9731
v  23.4156 34.4681 -2.4969
# 14 vertices

vn -0.9204 0.3504 0.1735
vn -0.3755 0.6161 -0.6924
vn -0.6935 -0.2229 -0.6851
vn -0.7242 -0.6844 0.0839
vn -0.4370 -0.3069 0.8455
vn -0.1189 0.5322 0.8382
vn -0.0882 0.9937 0.0693
vn 0.4370 0.3069 -0.8455
vn 0.1189 -0.5322 -0.8382
vn 0.0882 -0.9937 -0.0693
vn 0.3755 -0.6161 0.6924
vn 0.6935 0.2229 0.6851
vn 0.7242 0.6844 -0.0839
vn 0.9204 -0.3504 -0.1735
# 14 vertex normals

vt 0.1277 0.2577 0.0000
vt 0.2877 0.2674 0.0000
vt 0.1979 0.3997 0.0000
vt 0.0441 0.3943 0.0000
vt -0.0321 0.2498 0.0000
vt 0.0565 0.1143 0.0000
vt 0.2165 0.1239 0.0000
vt 0.3428 0.4021 0.0000
vt 0.3411 0.5706 0.0000
vt 0.1942 0.5683 0.0000
vt 0.0473 0.5648 0.0000
vt 0.9253 0.3964 0.0000
vt 0.9338 0.5648 0.0000
vt 0.7805 0.5676 0.0000
vt 0.7780 0.3991 0.0000
vt 0.6349 0.5702 0.0000
vt 0.6327 0.4019 0.0000
vt 0.4880 0.5713 0.0000
vt 0.4878 0.4028 0.0000
vt 0.8597 0.7061 0.0000
vt 1.0198 0.7011 0.0000
vt 0.9429 0.8430 0.0000
vt 0.6996 0.7070 0.0000
vt 0.7816 0.8459 0.0000
# 24 texture coords

g Sphere006
usemtl Material__25
s 1
f 71/121/71 72/122/72 73/123/73 
f 71/121/71 73/123/73 74/124/74 
f 71/121/71 74/124/74 75/125/75 
f 71/121/71 75/125/75 76/126/76 
f 71/121/71 76/126/76 77/127/77 
f 71/121/71 77/127/77 72/122/72 
f 72/128/72 78/129/78 79/130/79 
f 72/128/72 79/130/79 73/123/73 
f 73/123/73 79/130/79 80/131/80 
f 73/123/73 80/131/80 74/124/74 
f 74/132/74 80/133/80 81/134/81 
f 74/132/74 81/134/81 75/135/75 
f 75/135/75 81/134/81 82/136/82 
f 75/135/75 82/136/82 76/137/76 
f 76/137/76 82/136/82 83/138/83 
f 76/137/76 83/138/83 77/139/77 
f 77/139/77 83/138/83 78/129/78 
f 77/139/77 78/129/78 72/128/72 
f 84/140/84 79/141/79 78/142/78 
f 84/140/84 80/133/80 79/141/79 
f 84/140/84 81/134/81 80/133/80 
f 84/140/84 82/143/82 81/134/81 
f 84/140/84 83/144/83 82/143/82 
f 84/140/84 78/142/78 83/144/83 
# 24 faces

#
# object Sphere007
#

v  -32.7143 18.1285 32.2423
v  -36.6143 19.0673 22.9909
v  -41.0136 13.8478 28.4374
v  -36.7085 9.1213 34.3860
v  -28.0042 9.6141 34.8881
v  -23.6050 14.8335 29.4416
v  -27.9100 19.5601 23.4931
v  -35.8043 11.4917 16.3853
v  -40.2036 6.2722 21.8318
v  -35.8985 1.5456 27.7804
v  -27.1942 2.0385 28.2825
v  -22.7950 7.2579 22.8361
v  -27.1000 11.9845 16.8875
v  -31.0943 2.9773 19.0311
# 14 vertices

vn -0.0803 0.7513 0.6551
vn -0.4778 0.8173 -0.3222
vn -0.9299 0.2809 0.2375
vn -0.4875 -0.2048 0.8488
vn 0.4069 -0.1541 0.9004
vn 0.8590 0.3822 0.3407
vn 0.4166 0.8679 -0.2706
vn -0.4069 0.1541 -0.9004
vn -0.8590 -0.3822 -0.3407
vn -0.4166 -0.8679 0.2706
vn 0.4778 -0.8173 0.3222
vn 0.9299 -0.2809 -0.2375
vn 0.4875 0.2048 -0.8488
vn 0.0803 -0.7513 -0.6551
# 14 vertex normals

vt 0.1277 0.2577 0.0000
vt 0.2877 0.2674 0.0000
vt 0.1979 0.3997 0.0000
vt 0.0441 0.3943 0.0000
vt -0.0321 0.2498 0.0000
vt 0.0565 0.1143 0.0000
vt 0.2165 0.1239 0.0000
vt 0.3428 0.4021 0.0000
vt 0.3411 0.5706 0.0000
vt 0.1942 0.5683 0.0000
vt 0.0473 0.5648 0.0000
vt 0.9253 0.3964 0.0000
vt 0.9338 0.5648 0.0000
vt 0.7805 0.5676 0.0000
vt 0.7780 0.3991 0.0000
vt 0.6349 0.5702 0.0000
vt 0.6327 0.4019 0.0000
vt 0.4880 0.5713 0.0000
vt 0.4878 0.4028 0.0000
vt 0.8597 0.7061 0.0000
vt 1.0198 0.7011 0.0000
vt 0.9429 0.8430 0.0000
vt 0.6996 0.7070 0.0000
vt 0.7816 0.8459 0.0000
# 24 texture coords

g Sphere007
usemtl Material__25
s 1
f 85/145/85 86/146/86 87/147/87 
f 85/145/85 87/147/87 88/148/88 
f 85/145/85 88/148/88 89/149/89 
f 85/145/85 89/149/89 90/150/90 
f 85/145/85 90/150/90 91/151/91 
f 85/145/85 91/151/91 86/146/86 
f 86/152/86 92/153/92 93/154/93 
f 86/152/86 93/154/93 87/147/87 
f 87/147/87 93/154/93 94/155/94 
f 87/147/87 94/155/94 88/148/88 
f 88/156/88 94/157/94 95/158/95 
f 88/156/88 95/158/95 89/159/89 
f 89/159/89 95/158/95 96/160/96 
f 89/159/89 96/160/96 90/161/90 
f 90/161/90 96/160/96 97/162/97 
f 90/161/90 97/162/97 91/163/91 
f 91/163/91 97/162/97 92/153/92 
f 91/163/91 92/153/92 86/152/86 
f 98/164/98 93/165/93 92/166/92 
f 98/164/98 94/157/94 93/165/93 
f 98/164/98 95/158/95 94/157/94 
f 98/164/98 96/167/96 95/158/95 
f 98/164/98 97/168/97 96/167/96 
f 98/164/98 92/166/92 97/168/97 
# 24 faces

#
# object Sphere008
#

v  26.7800 32.8367 -39.0574
v  28.5735 20.6577 -46.3015
v  18.2450 21.3935 -39.5340
v  18.2908 27.5996 -28.8336
v  28.6650 33.0699 -24.9006
v  38.9934 32.3341 -31.6681
v  38.9477 26.1280 -42.3685
v  32.2518 8.7117 -39.3887
v  21.9234 9.4475 -32.6213
v  21.9691 15.6536 -21.9209
v  32.3434 21.1239 -17.9879
v  42.6718 20.3881 -24.7553
v  42.6260 14.1820 -35.4557
v  34.1368 8.9448 -25.2319
# 14 vertices

vn -0.2575 0.8363 -0.4840
vn -0.1170 -0.0811 -0.9898
vn -0.8662 -0.0277 -0.4989
vn -0.8629 0.4225 0.2773
vn -0.1103 0.8193 0.5626
vn 0.6389 0.7659 0.0717
vn 0.6356 0.3157 -0.7045
vn 0.1103 -0.8193 -0.5626
vn -0.6389 -0.7659 -0.0717
vn -0.6356 -0.3157 0.7045
vn 0.1170 0.0811 0.9898
vn 0.8662 0.0277 0.4989
vn 0.8629 -0.4225 -0.2773
vn 0.2575 -0.8363 0.4840
# 14 vertex normals

vt 0.1277 0.2577 0.0000
vt 0.2877 0.2674 0.0000
vt 0.1979 0.3997 0.0000
vt 0.0441 0.3943 0.0000
vt -0.0321 0.2498 0.0000
vt 0.0565 0.1143 0.0000
vt 0.2165 0.1239 0.0000
vt 0.3428 0.4021 0.0000
vt 0.3411 0.5706 0.0000
vt 0.1942 0.5683 0.0000
vt 0.0473 0.5648 0.0000
vt 0.9253 0.3964 0.0000
vt 0.9338 0.5648 0.0000
vt 0.7805 0.5676 0.0000
vt 0.7780 0.3991 0.0000
vt 0.6349 0.5702 0.0000
vt 0.6327 0.4019 0.0000
vt 0.4880 0.5713 0.0000
vt 0.4878 0.4028 0.0000
vt 0.8597 0.7061 0.0000
vt 1.0198 0.7011 0.0000
vt 0.9429 0.8430 0.0000
vt 0.6996 0.7070 0.0000
vt 0.7816 0.8459 0.0000
# 24 texture coords

g Sphere008
usemtl Material__25
s 1
f 99/169/99 100/170/100 101/171/101 
f 99/169/99 101/171/101 102/172/102 
f 99/169/99 102/172/102 103/173/103 
f 99/169/99 103/173/103 104/174/104 
f 99/169/99 104/174/104 105/175/105 
f 99/169/99 105/175/105 100/170/100 
f 100/176/100 106/177/106 107/178/107 
f 100/176/100 107/178/107 101/171/101 
f 101/171/101 107/178/107 108/179/108 
f 101/171/101 108/179/108 102/172/102 
f 102/180/102 108/181/108 109/182/109 
f 102/180/102 109/182/109 103/183/103 
f 103/183/103 109/182/109 110/184/110 
f 103/183/103 110/184/110 104/185/104 
f 104/185/104 110/184/110 111/186/111 
f 104/185/104 111/186/111 105/187/105 
f 105/187/105 111/186/111 106/177/106 
f 105/187/105 106/177/106 100/176/100 
f 112/188/112 107/189/107 106/190/106 
f 112/188/112 108/181/108 107/189/107 
f 112/188/112 109/182/109 108/181/108 
f 112/188/112 110/191/110 109/182/109 
f 112/188/112 111/192/111 110/191/110 
f 112/188/112 106/190/106 111/192/111 
# 24 faces

#
# object Sphere009
#

v  -51.4202 15.6636 -27.1279
v  -45.9725 5.9997 -34.9878
v  -50.3154 2.3367 -24.6748
v  -49.7197 9.3278 -15.2195
v  -44.7811 19.9819 -16.0771
v  -40.4383 23.6449 -26.3900
v  -41.0340 16.6538 -35.8454
v  -33.8859 0.6540 -31.7967
v  -38.2287 -3.0090 -21.4838
v  -37.6330 3.9821 -12.0285
v  -32.6945 14.6362 -12.8861
v  -28.3517 18.2992 -23.1990
v  -28.9474 11.3081 -32.6543
v  -27.2469 4.9723 -20.7459
# 14 vertices

vn -0.8890 0.3932 -0.2347
vn -0.4377 -0.3593 -0.8242
vn -0.7687 -0.6384 -0.0382
vn -0.7233 -0.1056 0.6824
vn -0.3469 0.7063 0.6170
vn -0.0160 0.9855 -0.1689
vn -0.0614 0.4527 -0.8896
vn 0.3469 -0.7063 -0.6170
vn 0.0160 -0.9855 0.1689
vn 0.0614 -0.4527 0.8896
vn 0.4377 0.3593 0.8242
vn 0.7687 0.6384 0.0382
vn 0.7233 0.1056 -0.6824
vn 0.8890 -0.3932 0.2347
# 14 vertex normals

vt 0.1277 0.2577 0.0000
vt 0.2877 0.2674 0.0000
vt 0.1979 0.3997 0.0000
vt 0.0441 0.3943 0.0000
vt -0.0321 0.2498 0.0000
vt 0.0565 0.1143 0.0000
vt 0.2165 0.1239 0.0000
vt 0.3428 0.4021 0.0000
vt 0.3411 0.5706 0.0000
vt 0.1942 0.5683 0.0000
vt 0.0473 0.5648 0.0000
vt 0.9253 0.3964 0.0000
vt 0.9338 0.5648 0.0000
vt 0.7805 0.5676 0.0000
vt 0.7780 0.3991 0.0000
vt 0.6349 0.5702 0.0000
vt 0.6327 0.4019 0.0000
vt 0.4880 0.5713 0.0000
vt 0.4878 0.4028 0.0000
vt 0.8597 0.7061 0.0000
vt 1.0198 0.7011 0.0000
vt 0.9429 0.8430 0.0000
vt 0.6996 0.7070 0.0000
vt 0.7816 0.8459 0.0000
# 24 texture coords

g Sphere009
usemtl Material__25
s 1
f 113/193/113 114/194/114 115/195/115 
f 113/193/113 115/195/115 116/196/116 
f 113/193/113 116/196/116 117/197/117 
f 113/193/113 117/197/117 118/198/118 
f 113/193/113 118/198/118 119/199/119 
f 113/193/113 119/199/119 114/194/114 
f 114/200/114 120/201/120 121/202/121 
f 114/200/114 121/202/121 115/195/115 
f 115/195/115 121/202/121 122/203/122 
f 115/195/115 122/203/122 116/196/116 
f 116/204/116 122/205/122 123/206/123 
f 116/204/116 123/206/123 117/207/117 
f 117/207/117 123/206/123 124/208/124 
f 117/207/117 124/208/124 118/209/118 
f 118/209/118 124/208/124 125/210/125 
f 118/209/118 125/210/125 119/211/119 
f 119/211/119 125/210/125 120/201/120 
f 119/211/119 120/201/120 114/200/114 
f 126/212/126 121/213/121 120/214/120 
f 126/212/126 122/205/122 121/213/121 
f 126/212/126 123/206/123 122/205/122 
f 126/212/126 124/215/124 123/206/123 
f 126/212/126 125/216/125 124/215/124 
f 126/212/126 120/214/120 125/216/125 
# 24 faces

