# 3ds Max Wavefront OBJ Exporter v0.97b - (c)2007 guruware
# File Created: 04.04.2019 17:44:27

mtllib model6.mtl

#
# object Sphere001
#

v  79.8617 8.1651 2.9531
v  70.6360 10.6717 -13.6057
v  74.3959 24.5103 -5.3263
v  74.3959 24.5103 11.2325
v  70.6360 10.6717 19.5119
v  66.8761 -3.1670 11.2325
v  66.8761 -3.1670 -5.3263
v  52.1845 15.6848 -13.6057
v  55.9443 29.5235 -5.3263
v  55.9443 29.5235 11.2325
v  52.1845 15.6848 19.5119
v  48.4246 1.8462 11.2325
v  48.4246 1.8462 -5.3263
v  42.9587 18.1914 2.9531
# 14 vertices

vn 0.9650 -0.2622 -0.0000
vn 0.4259 -0.1157 -0.8973
vn 0.6296 0.6342 -0.4487
vn 0.6296 0.6342 0.4487
vn 0.4259 -0.1157 0.8973
vn 0.2221 -0.8656 0.4487
vn 0.2221 -0.8656 -0.4487
vn -0.4259 0.1157 -0.8973
vn -0.2221 0.8656 -0.4487
vn -0.2221 0.8656 0.4487
vn -0.4259 0.1157 0.8973
vn -0.6296 -0.6342 0.4487
vn -0.6296 -0.6342 -0.4487
vn -0.9650 0.2622 -0.0000
# 14 vertex normals

vt 0.1277 0.2577 0.0000
vt 0.2877 0.2674 0.0000
vt 0.1979 0.3997 0.0000
vt 0.0441 0.3943 0.0000
vt -0.0321 0.2498 0.0000
vt 0.0565 0.1143 0.0000
vt 0.2165 0.1239 0.0000
vt 0.3428 0.4021 0.0000
vt 0.3411 0.5706 0.0000
vt 0.1942 0.5683 0.0000
vt 0.0473 0.5648 0.0000
vt 0.9253 0.3964 0.0000
vt 0.9338 0.5648 0.0000
vt 0.7805 0.5676 0.0000
vt 0.7780 0.3991 0.0000
vt 0.6349 0.5702 0.0000
vt 0.6327 0.4019 0.0000
vt 0.4880 0.5713 0.0000
vt 0.4878 0.4028 0.0000
vt 0.8597 0.7061 0.0000
vt 1.0198 0.7011 0.0000
vt 0.9429 0.8430 0.0000
vt 0.6996 0.7070 0.0000
vt 0.7816 0.8459 0.0000
# 24 texture coords

g Sphere001
usemtl Material__25
s 1
f 1/1/1 2/2/2 3/3/3 
f 1/1/1 3/3/3 4/4/4 
f 1/1/1 4/4/4 5/5/5 
f 1/1/1 5/5/5 6/6/6 
f 1/1/1 6/6/6 7/7/7 
f 1/1/1 7/7/7 2/2/2 
f 2/8/2 8/9/8 9/10/9 
f 2/8/2 9/10/9 3/3/3 
f 3/3/3 9/10/9 10/11/10 
f 3/3/3 10/11/10 4/4/4 
f 4/12/4 10/13/10 11/14/11 
f 4/12/4 11/14/11 5/15/5 
f 5/15/5 11/14/11 12/16/12 
f 5/15/5 12/16/12 6/17/6 
f 6/17/6 12/16/12 13/18/13 
f 6/17/6 13/18/13 7/19/7 
f 7/19/7 13/18/13 8/9/8 
f 7/19/7 8/9/8 2/8/2 
f 14/20/14 9/21/9 8/22/8 
f 14/20/14 10/13/10 9/21/9 
f 14/20/14 11/14/11 10/13/10 
f 14/20/14 12/23/12 11/14/11 
f 14/20/14 13/24/13 12/23/12 
f 14/20/14 8/22/8 13/24/13 
# 24 faces

#
# object Sphere002
#

v  -3.5978 19.3813 75.2386
v  -1.4234 33.8804 62.9650
v  -15.2936 25.0095 61.1985
v  -15.1841 8.7550 64.3561
v  -1.2046 1.3713 69.2802
v  12.6655 10.2422 71.0467
v  12.5561 26.4967 67.8891
v  3.1441 30.3695 44.7332
v  -10.7260 21.4986 42.9667
v  -10.6166 5.2440 46.1243
v  3.3629 -2.1397 51.0484
v  17.2330 6.7312 52.8149
v  17.1236 22.9858 49.6573
v  5.5373 12.3594 38.7748
# 14 vertices

vn -0.2389 0.1836 0.9535
vn -0.1114 0.9619 0.2497
vn -0.8630 0.4812 0.1540
vn -0.8571 -0.3997 0.3251
vn -0.0995 -0.7998 0.5919
vn 0.6521 -0.3191 0.6877
vn 0.6462 0.5618 0.5166
vn 0.0995 0.7998 -0.5919
vn -0.6521 0.3191 -0.6877
vn -0.6462 -0.5618 -0.5166
vn 0.1114 -0.9619 -0.2497
vn 0.8630 -0.4812 -0.1540
vn 0.8571 0.3997 -0.3251
vn 0.2389 -0.1836 -0.9535
# 14 vertex normals

vt 0.1277 0.2577 0.0000
vt 0.2877 0.2674 0.0000
vt 0.1979 0.3997 0.0000
vt 0.0441 0.3943 0.0000
vt -0.0321 0.2498 0.0000
vt 0.0565 0.1143 0.0000
vt 0.2165 0.1239 0.0000
vt 0.3428 0.4021 0.0000
vt 0.3411 0.5706 0.0000
vt 0.1942 0.5683 0.0000
vt 0.0473 0.5648 0.0000
vt 0.9253 0.3964 0.0000
vt 0.9338 0.5648 0.0000
vt 0.7805 0.5676 0.0000
vt 0.7780 0.3991 0.0000
vt 0.6349 0.5702 0.0000
vt 0.6327 0.4019 0.0000
vt 0.4880 0.5713 0.0000
vt 0.4878 0.4028 0.0000
vt 0.8597 0.7061 0.0000
vt 1.0198 0.7011 0.0000
vt 0.9429 0.8430 0.0000
vt 0.6996 0.7070 0.0000
vt 0.7816 0.8459 0.0000
# 24 texture coords

g Sphere002
usemtl Material__25
s 1
f 15/25/15 16/26/16 17/27/17 
f 15/25/15 17/27/17 18/28/18 
f 15/25/15 18/28/18 19/29/19 
f 15/25/15 19/29/19 20/30/20 
f 15/25/15 20/30/20 21/31/21 
f 15/25/15 21/31/21 16/26/16 
f 16/32/16 22/33/22 23/34/23 
f 16/32/16 23/34/23 17/27/17 
f 17/27/17 23/34/23 24/35/24 
f 17/27/17 24/35/24 18/28/18 
f 18/36/18 24/37/24 25/38/25 
f 18/36/18 25/38/25 19/39/19 
f 19/39/19 25/38/25 26/40/26 
f 19/39/19 26/40/26 20/41/20 
f 20/41/20 26/40/26 27/42/27 
f 20/41/20 27/42/27 21/43/21 
f 21/43/21 27/42/27 22/33/22 
f 21/43/21 22/33/22 16/32/16 
f 28/44/28 23/45/23 22/46/22 
f 28/44/28 24/37/24 23/45/23 
f 28/44/28 25/38/25 24/37/24 
f 28/44/28 26/47/26 25/38/25 
f 28/44/28 27/48/27 26/47/26 
f 28/44/28 22/46/22 27/48/27 
# 24 faces

#
# object Sphere003
#

v  3.4016 31.1601 -63.5862
v  4.9086 22.1788 -73.6813
v  -4.9969 21.1705 -67.3965
v  -4.9526 23.6847 -55.8939
v  4.9973 27.2071 -50.6760
v  14.9028 28.2155 -56.9607
v  14.8585 25.7013 -68.4634
v  8.0113 9.2446 -70.8662
v  -1.8942 8.2363 -64.5815
v  -1.8498 10.7505 -53.0788
v  8.1000 14.2729 -47.8609
v  18.0055 15.2813 -54.1456
v  17.9612 12.7671 -65.6483
v  9.6070 5.2917 -57.9560
# 14 vertices

vn -0.2282 0.9513 -0.2071
vn -0.1041 0.2282 -0.9680
vn -0.8590 0.1514 -0.4890
vn -0.8556 0.3430 0.3876
vn -0.0973 0.6115 0.7853
vn 0.6576 0.6883 0.3063
vn 0.6542 0.4967 -0.5704
vn 0.0973 -0.6115 -0.7853
vn -0.6576 -0.6883 -0.3063
vn -0.6542 -0.4967 0.5704
vn 0.1041 -0.2282 0.9680
vn 0.8590 -0.1514 0.4890
vn 0.8556 -0.3430 -0.3876
vn 0.2282 -0.9513 0.2071
# 14 vertex normals

vt 0.1277 0.2577 0.0000
vt 0.2877 0.2674 0.0000
vt 0.1979 0.3997 0.0000
vt 0.0441 0.3943 0.0000
vt -0.0321 0.2498 0.0000
vt 0.0565 0.1143 0.0000
vt 0.2165 0.1239 0.0000
vt 0.3428 0.4021 0.0000
vt 0.3411 0.5706 0.0000
vt 0.1942 0.5683 0.0000
vt 0.0473 0.5648 0.0000
vt 0.9253 0.3964 0.0000
vt 0.9338 0.5648 0.0000
vt 0.7805 0.5676 0.0000
vt 0.7780 0.3991 0.0000
vt 0.6349 0.5702 0.0000
vt 0.6327 0.4019 0.0000
vt 0.4880 0.5713 0.0000
vt 0.4878 0.4028 0.0000
vt 0.8597 0.7061 0.0000
vt 1.0198 0.7011 0.0000
vt 0.9429 0.8430 0.0000
vt 0.6996 0.7070 0.0000
vt 0.7816 0.8459 0.0000
# 24 texture coords

g Sphere003
usemtl Material__25
s 1
f 29/49/29 30/50/30 31/51/31 
f 29/49/29 31/51/31 32/52/32 
f 29/49/29 32/52/32 33/53/33 
f 29/49/29 33/53/33 34/54/34 
f 29/49/29 34/54/34 35/55/35 
f 29/49/29 35/55/35 30/50/30 
f 30/56/30 36/57/36 37/58/37 
f 30/56/30 37/58/37 31/51/31 
f 31/51/31 37/58/37 38/59/38 
f 31/51/31 38/59/38 32/52/32 
f 32/60/32 38/61/38 39/62/39 
f 32/60/32 39/62/39 33/63/33 
f 33/63/33 39/62/39 40/64/40 
f 33/63/33 40/64/40 34/65/34 
f 34/65/34 40/64/40 41/66/41 
f 34/65/34 41/66/41 35/67/35 
f 35/67/35 41/66/41 36/57/36 
f 35/67/35 36/57/36 30/56/30 
f 42/68/42 37/69/37 36/70/36 
f 42/68/42 38/61/38 37/69/37 
f 42/68/42 39/62/39 38/61/38 
f 42/68/42 40/71/40 39/62/39 
f 42/68/42 41/72/41 40/71/40 
f 42/68/42 36/70/36 41/72/41 
# 24 faces

#
# object Sphere004
#

v  -33.4372 13.9351 -15.3219
v  -44.6169 32.7065 -20.3030
v  -27.2756 35.2164 -11.9605
v  -20.8895 22.4433 1.1804
v  -31.8448 7.1601 5.9788
v  -49.1862 4.6501 -2.3636
v  -55.5722 17.4233 -15.5045
v  -54.2042 44.7027 -3.9833
v  -36.8629 47.2127 4.3592
v  -30.4768 34.4395 17.5001
v  -41.4321 19.1563 22.2985
v  -58.7735 16.6464 13.9561
v  -65.1595 29.4195 0.8152
v  -52.6118 37.9277 17.3175
# 14 vertices

vn 0.4278 -0.5353 -0.7283
vn -0.1065 0.3544 -0.9290
vn 0.6954 0.4704 -0.5433
vn 0.9907 -0.1202 0.0643
vn 0.4841 -0.8269 0.2862
vn -0.3177 -0.9429 -0.0995
vn -0.6130 -0.3523 -0.7072
vn -0.4841 0.8269 -0.2862
vn 0.3177 0.9429 0.0995
vn 0.6130 0.3523 0.7072
vn 0.1065 -0.3544 0.9290
vn -0.6954 -0.4704 0.5433
vn -0.9907 0.1202 -0.0643
vn -0.4278 0.5353 0.7283
# 14 vertex normals

vt 0.1277 0.2577 0.0000
vt 0.2877 0.2674 0.0000
vt 0.1979 0.3997 0.0000
vt 0.0441 0.3943 0.0000
vt -0.0321 0.2498 0.0000
vt 0.0565 0.1143 0.0000
vt 0.2165 0.1239 0.0000
vt 0.3428 0.4021 0.0000
vt 0.3411 0.5706 0.0000
vt 0.1942 0.5683 0.0000
vt 0.0473 0.5648 0.0000
vt 0.9253 0.3964 0.0000
vt 0.9338 0.5648 0.0000
vt 0.7805 0.5676 0.0000
vt 0.7780 0.3991 0.0000
vt 0.6349 0.5702 0.0000
vt 0.6327 0.4019 0.0000
vt 0.4880 0.5713 0.0000
vt 0.4878 0.4028 0.0000
vt 0.8597 0.7061 0.0000
vt 1.0198 0.7011 0.0000
vt 0.9429 0.8430 0.0000
vt 0.6996 0.7070 0.0000
vt 0.7816 0.8459 0.0000
# 24 texture coords

g Sphere004
usemtl Material__25
s 1
f 43/73/43 44/74/44 45/75/45 
f 43/73/43 45/75/45 46/76/46 
f 43/73/43 46/76/46 47/77/47 
f 43/73/43 47/77/47 48/78/48 
f 43/73/43 48/78/48 49/79/49 
f 43/73/43 49/79/49 44/74/44 
f 44/80/44 50/81/50 51/82/51 
f 44/80/44 51/82/51 45/75/45 
f 45/75/45 51/82/51 52/83/52 
f 45/75/45 52/83/52 46/76/46 
f 46/84/46 52/85/52 53/86/53 
f 46/84/46 53/86/53 47/87/47 
f 47/87/47 53/86/53 54/88/54 
f 47/87/47 54/88/54 48/89/48 
f 48/89/48 54/88/54 55/90/55 
f 48/89/48 55/90/55 49/91/49 
f 49/91/49 55/90/55 50/81/50 
f 49/91/49 50/81/50 44/80/44 
f 56/92/56 51/93/51 50/94/50 
f 56/92/56 52/85/52 51/93/51 
f 56/92/56 53/86/53 52/85/52 
f 56/92/56 54/95/54 53/86/53 
f 56/92/56 55/96/55 54/95/54 
f 56/92/56 50/94/50 55/96/55 
# 24 faces

#
# object Sphere005
#

v  24.7923 28.0441 50.1640
v  25.6113 21.2958 38.3897
v  15.4888 20.0672 44.2768
v  15.4888 20.0672 56.0511
v  25.6113 21.2958 61.9383
v  35.7339 22.5243 56.0511
v  35.7339 22.5243 44.2768
v  27.2494 7.7990 38.3897
v  17.1269 6.5705 44.2768
v  17.1269 6.5705 56.0511
v  27.2494 7.7990 61.9383
v  37.3720 9.0276 56.0511
v  37.3720 9.0276 44.2768
v  28.0684 1.0506 50.1640
# 14 vertices

vn -0.1205 0.9927 -0.0000
vn -0.0532 0.4381 -0.8973
vn -0.8246 0.3445 -0.4487
vn -0.8246 0.3445 0.4487
vn -0.0532 0.4381 0.8973
vn 0.7183 0.5317 0.4487
vn 0.7183 0.5317 -0.4487
vn 0.0532 -0.4381 -0.8973
vn -0.7183 -0.5317 -0.4487
vn -0.7183 -0.5317 0.4487
vn 0.0532 -0.4381 0.8973
vn 0.8246 -0.3445 0.4487
vn 0.8246 -0.3445 -0.4487
vn 0.1205 -0.9927 -0.0000
# 14 vertex normals

vt 0.1277 0.2577 0.0000
vt 0.2877 0.2674 0.0000
vt 0.1979 0.3997 0.0000
vt 0.0441 0.3943 0.0000
vt -0.0321 0.2498 0.0000
vt 0.0565 0.1143 0.0000
vt 0.2165 0.1239 0.0000
vt 0.3428 0.4021 0.0000
vt 0.3411 0.5706 0.0000
vt 0.1942 0.5683 0.0000
vt 0.0473 0.5648 0.0000
vt 0.9253 0.3964 0.0000
vt 0.9338 0.5648 0.0000
vt 0.7805 0.5676 0.0000
vt 0.7780 0.3991 0.0000
vt 0.6349 0.5702 0.0000
vt 0.6327 0.4019 0.0000
vt 0.4880 0.5713 0.0000
vt 0.4878 0.4028 0.0000
vt 0.8597 0.7061 0.0000
vt 1.0198 0.7011 0.0000
vt 0.9429 0.8430 0.0000
vt 0.6996 0.7070 0.0000
vt 0.7816 0.8459 0.0000
# 24 texture coords

g Sphere005
usemtl Material__25
s 1
f 57/97/57 58/98/58 59/99/59 
f 57/97/57 59/99/59 60/100/60 
f 57/97/57 60/100/60 61/101/61 
f 57/97/57 61/101/61 62/102/62 
f 57/97/57 62/102/62 63/103/63 
f 57/97/57 63/103/63 58/98/58 
f 58/104/58 64/105/64 65/106/65 
f 58/104/58 65/106/65 59/99/59 
f 59/99/59 65/106/65 66/107/66 
f 59/99/59 66/107/66 60/100/60 
f 60/108/60 66/109/66 67/110/67 
f 60/108/60 67/110/67 61/111/61 
f 61/111/61 67/110/67 68/112/68 
f 61/111/61 68/112/68 62/113/62 
f 62/113/62 68/112/68 69/114/69 
f 62/113/62 69/114/69 63/115/63 
f 63/115/63 69/114/69 64/105/64 
f 63/115/63 64/105/64 58/104/58 
f 70/116/70 65/117/65 64/118/64 
f 70/116/70 66/109/66 65/117/65 
f 70/116/70 67/110/67 66/109/66 
f 70/116/70 68/119/68 67/110/67 
f 70/116/70 69/120/69 68/119/68 
f 70/116/70 64/118/64 69/120/69 
# 24 faces

#
# object Sphere006
#

v  -12.2332 35.2916 6.2318
v  -3.7631 46.9907 -6.2973
v  -8.1916 32.1643 -12.1931
v  -7.6366 18.8455 -2.3699
v  -2.6531 20.3531 13.3490
v  1.7754 35.1795 19.2448
v  1.2204 48.4983 9.4216
v  14.2870 43.7514 -11.7092
v  9.8586 28.9250 -17.6050
v  10.4136 15.6062 -7.7818
v  15.3971 17.1138 7.9371
v  19.8256 31.9402 13.8329
v  19.2706 45.2590 4.0097
v  23.8672 28.8129 -4.5920
# 14 vertices

vn -0.9440 0.1694 0.2830
vn -0.4467 0.7965 -0.4074
vn -0.6867 -0.0069 -0.7269
vn -0.6566 -0.7287 -0.1946
vn -0.3866 -0.6470 0.6572
vn -0.1466 0.1565 0.9767
vn -0.1766 0.8782 0.4444
vn 0.3866 0.6470 -0.6572
vn 0.1466 -0.1565 -0.9767
vn 0.1766 -0.8782 -0.4444
vn 0.4467 -0.7965 0.4074
vn 0.6867 0.0069 0.7269
vn 0.6566 0.7287 0.1946
vn 0.9440 -0.1694 -0.2830
# 14 vertex normals

vt 0.1277 0.2577 0.0000
vt 0.2877 0.2674 0.0000
vt 0.1979 0.3997 0.0000
vt 0.0441 0.3943 0.0000
vt -0.0321 0.2498 0.0000
vt 0.0565 0.1143 0.0000
vt 0.2165 0.1239 0.0000
vt 0.3428 0.4021 0.0000
vt 0.3411 0.5706 0.0000
vt 0.1942 0.5683 0.0000
vt 0.0473 0.5648 0.0000
vt 0.9253 0.3964 0.0000
vt 0.9338 0.5648 0.0000
vt 0.7805 0.5676 0.0000
vt 0.7780 0.3991 0.0000
vt 0.6349 0.5702 0.0000
vt 0.6327 0.4019 0.0000
vt 0.4880 0.5713 0.0000
vt 0.4878 0.4028 0.0000
vt 0.8597 0.7061 0.0000
vt 1.0198 0.7011 0.0000
vt 0.9429 0.8430 0.0000
vt 0.6996 0.7070 0.0000
vt 0.7816 0.8459 0.0000
# 24 texture coords

g Sphere006
usemtl Material__25
s 1
f 71/121/71 72/122/72 73/123/73 
f 71/121/71 73/123/73 74/124/74 
f 71/121/71 74/124/74 75/125/75 
f 71/121/71 75/125/75 76/126/76 
f 71/121/71 76/126/76 77/127/77 
f 71/121/71 77/127/77 72/122/72 
f 72/128/72 78/129/78 79/130/79 
f 72/128/72 79/130/79 73/123/73 
f 73/123/73 79/130/79 80/131/80 
f 73/123/73 80/131/80 74/124/74 
f 74/132/74 80/133/80 81/134/81 
f 74/132/74 81/134/81 75/135/75 
f 75/135/75 81/134/81 82/136/82 
f 75/135/75 82/136/82 76/137/76 
f 76/137/76 82/136/82 83/138/83 
f 76/137/76 83/138/83 77/139/77 
f 77/139/77 83/138/83 78/129/78 
f 77/139/77 78/129/78 72/128/72 
f 84/140/84 79/141/79 78/142/78 
f 84/140/84 80/133/80 79/141/79 
f 84/140/84 81/134/81 80/133/80 
f 84/140/84 82/143/82 81/134/81 
f 84/140/84 83/144/83 82/143/82 
f 84/140/84 78/142/78 83/144/83 
# 24 faces

#
# object Sphere007
#

v  -44.9094 15.3459 40.2618
v  -48.8591 14.4150 31.0307
v  -50.6919 7.9417 36.5983
v  -44.8073 5.5339 42.5845
v  -37.0900 9.5993 43.0031
v  -35.2572 16.0726 37.4356
v  -41.1418 18.4804 31.4494
v  -44.9894 7.7376 24.5409
v  -46.8222 1.2643 30.1084
v  -40.9376 -1.1435 36.0946
v  -33.2203 2.9219 36.5133
v  -31.3875 9.3952 30.9458
v  -37.2721 11.8031 24.9596
v  -37.1700 1.9911 27.2822
# 14 vertices

vn -0.3838 0.6622 0.6436
vn -0.7740 0.5397 -0.3311
vn -0.9624 -0.1255 0.2410
vn -0.3577 -0.3729 0.8561
vn 0.4353 0.0448 0.8992
vn 0.6236 0.7100 0.3271
vn 0.0190 0.9574 -0.2881
vn -0.4353 -0.0448 -0.8992
vn -0.6236 -0.7100 -0.3271
vn -0.0190 -0.9574 0.2881
vn 0.7740 -0.5397 0.3311
vn 0.9624 0.1255 -0.2410
vn 0.3577 0.3729 -0.8561
vn 0.3838 -0.6622 -0.6436
# 14 vertex normals

vt 0.1277 0.2577 0.0000
vt 0.2877 0.2674 0.0000
vt 0.1979 0.3997 0.0000
vt 0.0441 0.3943 0.0000
vt -0.0321 0.2498 0.0000
vt 0.0565 0.1143 0.0000
vt 0.2165 0.1239 0.0000
vt 0.3428 0.4021 0.0000
vt 0.3411 0.5706 0.0000
vt 0.1942 0.5683 0.0000
vt 0.0473 0.5648 0.0000
vt 0.9253 0.3964 0.0000
vt 0.9338 0.5648 0.0000
vt 0.7805 0.5676 0.0000
vt 0.7780 0.3991 0.0000
vt 0.6349 0.5702 0.0000
vt 0.6327 0.4019 0.0000
vt 0.4880 0.5713 0.0000
vt 0.4878 0.4028 0.0000
vt 0.8597 0.7061 0.0000
vt 1.0198 0.7011 0.0000
vt 0.9429 0.8430 0.0000
vt 0.6996 0.7070 0.0000
vt 0.7816 0.8459 0.0000
# 24 texture coords

g Sphere007
usemtl Material__25
s 1
f 85/145/85 86/146/86 87/147/87 
f 85/145/85 87/147/87 88/148/88 
f 85/145/85 88/148/88 89/149/89 
f 85/145/85 89/149/89 90/150/90 
f 85/145/85 90/150/90 91/151/91 
f 85/145/85 91/151/91 86/146/86 
f 86/152/86 92/153/92 93/154/93 
f 86/152/86 93/154/93 87/147/87 
f 87/147/87 93/154/93 94/155/94 
f 87/147/87 94/155/94 88/148/88 
f 88/156/88 94/157/94 95/158/95 
f 88/156/88 95/158/95 89/159/89 
f 89/159/89 95/158/95 96/160/96 
f 89/159/89 96/160/96 90/161/90 
f 90/161/90 96/160/96 97/162/97 
f 90/161/90 97/162/97 91/163/91 
f 91/163/91 97/162/97 92/153/92 
f 91/163/91 92/153/92 86/152/86 
f 98/164/98 93/165/93 92/166/92 
f 98/164/98 94/157/94 93/165/93 
f 98/164/98 95/158/95 94/157/94 
f 98/164/98 96/167/96 95/158/95 
f 98/164/98 97/168/97 96/167/96 
f 98/164/98 92/166/92 97/168/97 
# 24 faces

#
# object Sphere008
#

v  42.3111 24.0343 -46.0615
v  44.1004 9.8858 -45.2608
v  33.6920 14.2630 -40.2088
v  33.6498 25.3797 -34.7836
v  44.0159 32.1192 -34.4104
v  54.4242 27.7421 -39.4624
v  54.4665 16.6253 -44.8877
v  47.5943 3.8223 -32.8090
v  37.1860 8.1994 -27.7569
v  37.1437 19.3162 -22.3317
v  47.5098 26.0557 -21.9585
v  57.9182 21.6785 -27.0106
v  57.9604 10.5618 -32.4358
v  49.2990 11.9072 -21.1578
# 14 vertices

vn -0.2446 0.4245 -0.8718
vn -0.1049 -0.6191 -0.7783
vn -0.8599 -0.3016 -0.4118
vn -0.8630 0.5049 -0.0182
vn -0.1110 0.9938 0.0088
vn 0.6440 0.6762 -0.3577
vn 0.6471 -0.1302 -0.7512
vn 0.1110 -0.9938 -0.0088
vn -0.6440 -0.6762 0.3577
vn -0.6471 0.1302 0.7512
vn 0.1049 0.6191 0.7783
vn 0.8599 0.3016 0.4118
vn 0.8630 -0.5049 0.0182
vn 0.2446 -0.4245 0.8718
# 14 vertex normals

vt 0.1277 0.2577 0.0000
vt 0.2877 0.2674 0.0000
vt 0.1979 0.3997 0.0000
vt 0.0441 0.3943 0.0000
vt -0.0321 0.2498 0.0000
vt 0.0565 0.1143 0.0000
vt 0.2165 0.1239 0.0000
vt 0.3428 0.4021 0.0000
vt 0.3411 0.5706 0.0000
vt 0.1942 0.5683 0.0000
vt 0.0473 0.5648 0.0000
vt 0.9253 0.3964 0.0000
vt 0.9338 0.5648 0.0000
vt 0.7805 0.5676 0.0000
vt 0.7780 0.3991 0.0000
vt 0.6349 0.5702 0.0000
vt 0.6327 0.4019 0.0000
vt 0.4880 0.5713 0.0000
vt 0.4878 0.4028 0.0000
vt 0.8597 0.7061 0.0000
vt 1.0198 0.7011 0.0000
vt 0.9429 0.8430 0.0000
vt 0.6996 0.7070 0.0000
vt 0.7816 0.8459 0.0000
# 24 texture coords

g Sphere008
usemtl Material__25
s 1
f 99/169/99 100/170/100 101/171/101 
f 99/169/99 101/171/101 102/172/102 
f 99/169/99 102/172/102 103/173/103 
f 99/169/99 103/173/103 104/174/104 
f 99/169/99 104/174/104 105/175/105 
f 99/169/99 105/175/105 100/170/100 
f 100/176/100 106/177/106 107/178/107 
f 100/176/100 107/178/107 101/171/101 
f 101/171/101 107/178/107 108/179/108 
f 101/171/101 108/179/108 102/172/102 
f 102/180/102 108/181/108 109/182/109 
f 102/180/102 109/182/109 103/183/103 
f 103/183/103 109/182/109 110/184/110 
f 103/183/103 110/184/110 104/185/104 
f 104/185/104 110/184/110 111/186/111 
f 104/185/104 111/186/111 105/187/105 
f 105/187/105 111/186/111 106/177/106 
f 105/187/105 106/177/106 100/176/100 
f 112/188/112 107/189/107 106/190/106 
f 112/188/112 108/181/108 107/189/107 
f 112/188/112 109/182/109 108/181/108 
f 112/188/112 110/191/110 109/182/109 
f 112/188/112 111/192/111 110/191/110 
f 112/188/112 106/190/106 111/192/111 
# 24 faces

#
# object Sphere009
#

v  -70.8223 8.8908 -26.9086
v  -61.9902 0.7812 -33.3175
v  -64.3495 -2.0735 -22.1408
v  -66.5569 6.3784 -14.2461
v  -66.4050 17.6850 -17.5280
v  -64.0457 20.5398 -28.7047
v  -61.8383 12.0879 -36.5994
v  -48.7409 1.4658 -30.3458
v  -51.1001 -1.3890 -19.1691
v  -53.3075 7.0629 -11.2744
v  -53.1556 18.3696 -14.5563
v  -50.7963 21.2243 -25.7330
v  -48.5889 12.7724 -33.6278
v  -44.3235 10.2599 -20.9652
# 14 vertices

vn -0.9745 -0.0504 -0.2186
vn -0.2619 -0.6664 -0.6981
vn -0.4417 -0.8839 0.1537
vn -0.6099 -0.2398 0.7553
vn -0.5983 0.6219 0.5052
vn -0.4185 0.8395 -0.3466
vn -0.2503 0.1953 -0.9483
vn 0.5983 -0.6219 -0.5052
vn 0.4185 -0.8395 0.3466
vn 0.2503 -0.1953 0.9483
vn 0.2619 0.6664 0.6981
vn 0.4417 0.8839 -0.1537
vn 0.6099 0.2398 -0.7553
vn 0.9745 0.0504 0.2186
# 14 vertex normals

vt 0.1277 0.2577 0.0000
vt 0.2877 0.2674 0.0000
vt 0.1979 0.3997 0.0000
vt 0.0441 0.3943 0.0000
vt -0.0321 0.2498 0.0000
vt 0.0565 0.1143 0.0000
vt 0.2165 0.1239 0.0000
vt 0.3428 0.4021 0.0000
vt 0.3411 0.5706 0.0000
vt 0.1942 0.5683 0.0000
vt 0.0473 0.5648 0.0000
vt 0.9253 0.3964 0.0000
vt 0.9338 0.5648 0.0000
vt 0.7805 0.5676 0.0000
vt 0.7780 0.3991 0.0000
vt 0.6349 0.5702 0.0000
vt 0.6327 0.4019 0.0000
vt 0.4880 0.5713 0.0000
vt 0.4878 0.4028 0.0000
vt 0.8597 0.7061 0.0000
vt 1.0198 0.7011 0.0000
vt 0.9429 0.8430 0.0000
vt 0.6996 0.7070 0.0000
vt 0.7816 0.8459 0.0000
# 24 texture coords

g Sphere009
usemtl Material__25
s 1
f 113/193/113 114/194/114 115/195/115 
f 113/193/113 115/195/115 116/196/116 
f 113/193/113 116/196/116 117/197/117 
f 113/193/113 117/197/117 118/198/118 
f 113/193/113 118/198/118 119/199/119 
f 113/193/113 119/199/119 114/194/114 
f 114/200/114 120/201/120 121/202/121 
f 114/200/114 121/202/121 115/195/115 
f 115/195/115 121/202/121 122/203/122 
f 115/195/115 122/203/122 116/196/116 
f 116/204/116 122/205/122 123/206/123 
f 116/204/116 123/206/123 117/207/117 
f 117/207/117 123/206/123 124/208/124 
f 117/207/117 124/208/124 118/209/118 
f 118/209/118 124/208/124 125/210/125 
f 118/209/118 125/210/125 119/211/119 
f 119/211/119 125/210/125 120/201/120 
f 119/211/119 120/201/120 114/200/114 
f 126/212/126 121/213/121 120/214/120 
f 126/212/126 122/205/122 121/213/121 
f 126/212/126 123/206/123 122/205/122 
f 126/212/126 124/215/124 123/206/123 
f 126/212/126 125/216/125 124/215/124 
f 126/212/126 120/214/120 125/216/125 
# 24 faces

