# 3ds Max Wavefront OBJ Exporter v0.97b - (c)2007 guruware
# File Created: 04.04.2019 17:44:25

mtllib model0.mtl

#
# object Sphere001
#

v  43.8655 15.5728 2.9531
v  37.3065 8.6175 -13.6057
v  26.8735 18.4560 -5.3263
v  26.8735 18.4560 11.2325
v  37.3065 8.6175 19.5119
v  47.7396 -1.2210 11.2325
v  47.7396 -1.2210 -5.3263
v  24.1885 -5.2933 -13.6057
v  13.7555 4.5452 -5.3263
v  13.7555 4.5452 11.2325
v  24.1885 -5.2933 19.5119
v  34.6216 -15.1318 11.2325
v  34.6216 -15.1318 -5.3263
v  17.6295 -12.2487 2.9531
# 14 vertices

vn 0.6861 0.7275 -0.0000
vn 0.3028 0.3211 -0.8973
vn -0.2626 0.8542 -0.4487
vn -0.2626 0.8542 0.4487
vn 0.3028 0.3211 0.8973
vn 0.8682 -0.2121 0.4487
vn 0.8682 -0.2121 -0.4487
vn -0.3028 -0.3211 -0.8973
vn -0.8682 0.2121 -0.4487
vn -0.8682 0.2121 0.4487
vn -0.3028 -0.3211 0.8973
vn 0.2626 -0.8542 0.4487
vn 0.2626 -0.8542 -0.4487
vn -0.6861 -0.7275 -0.0000
# 14 vertex normals

vt 0.1277 0.2577 0.0000
vt 0.2877 0.2674 0.0000
vt 0.1979 0.3997 0.0000
vt 0.0441 0.3943 0.0000
vt -0.0321 0.2498 0.0000
vt 0.0565 0.1143 0.0000
vt 0.2165 0.1239 0.0000
vt 0.3428 0.4021 0.0000
vt 0.3411 0.5706 0.0000
vt 0.1942 0.5683 0.0000
vt 0.0473 0.5648 0.0000
vt 0.9253 0.3964 0.0000
vt 0.9338 0.5648 0.0000
vt 0.7805 0.5676 0.0000
vt 0.7780 0.3991 0.0000
vt 0.6349 0.5702 0.0000
vt 0.6327 0.4019 0.0000
vt 0.4880 0.5713 0.0000
vt 0.4878 0.4028 0.0000
vt 0.8597 0.7061 0.0000
vt 1.0198 0.7011 0.0000
vt 0.9429 0.8430 0.0000
vt 0.6996 0.7070 0.0000
vt 0.7816 0.8459 0.0000
# 24 texture coords

g Sphere001
usemtl Material__25
s 1
f 1/1/1 2/2/2 3/3/3 
f 1/1/1 3/3/3 4/4/4 
f 1/1/1 4/4/4 5/5/5 
f 1/1/1 5/5/5 6/6/6 
f 1/1/1 6/6/6 7/7/7 
f 1/1/1 7/7/7 2/2/2 
f 2/8/2 8/9/8 9/10/9 
f 2/8/2 9/10/9 3/3/3 
f 3/3/3 9/10/9 10/11/10 
f 3/3/3 10/11/10 4/4/4 
f 4/12/4 10/13/10 11/14/11 
f 4/12/4 11/14/11 5/15/5 
f 5/15/5 11/14/11 12/16/12 
f 5/15/5 12/16/12 6/17/6 
f 6/17/6 12/16/12 13/18/13 
f 6/17/6 13/18/13 7/19/7 
f 7/19/7 13/18/13 8/9/8 
f 7/19/7 8/9/8 2/8/2 
f 14/20/14 9/21/9 8/22/8 
f 14/20/14 10/13/10 9/21/9 
f 14/20/14 11/14/11 10/13/10 
f 14/20/14 12/23/12 11/14/11 
f 14/20/14 13/24/13 12/23/12 
f 14/20/14 8/22/8 13/24/13 
# 24 faces

#
# object Sphere002
#

v  -1.0240 24.9774 24.6441
v  1.4378 16.7422 7.5646
v  -12.4382 12.5934 15.5918
v  -12.4597 11.6015 32.1209
v  1.3948 14.7584 40.6226
v  15.2708 18.9072 32.5953
v  15.2923 19.8991 16.0663
v  6.3184 -1.7120 6.4635
v  -7.5576 -5.8608 14.4907
v  -7.5791 -6.8527 31.0198
v  6.2754 -3.6958 39.5215
v  20.1514 0.4530 31.4942
v  20.1729 1.4449 14.9652
v  8.7372 -11.9310 22.4420
# 14 vertices

vn -0.2553 0.9652 0.0576
vn -0.1115 0.4797 -0.8703
vn -0.8634 0.2549 -0.4353
vn -0.8646 0.2011 0.4604
vn -0.1138 0.3722 0.9211
vn 0.6381 0.5970 0.4861
vn 0.6393 0.6508 -0.4096
vn 0.1138 -0.3722 -0.9211
vn -0.6381 -0.5970 -0.4861
vn -0.6393 -0.6508 0.4096
vn 0.1115 -0.4797 0.8703
vn 0.8634 -0.2549 0.4353
vn 0.8646 -0.2011 -0.4604
vn 0.2553 -0.9652 -0.0576
# 14 vertex normals

vt 0.1277 0.2577 0.0000
vt 0.2877 0.2674 0.0000
vt 0.1979 0.3997 0.0000
vt 0.0441 0.3943 0.0000
vt -0.0321 0.2498 0.0000
vt 0.0565 0.1143 0.0000
vt 0.2165 0.1239 0.0000
vt 0.3428 0.4021 0.0000
vt 0.3411 0.5706 0.0000
vt 0.1942 0.5683 0.0000
vt 0.0473 0.5648 0.0000
vt 0.9253 0.3964 0.0000
vt 0.9338 0.5648 0.0000
vt 0.7805 0.5676 0.0000
vt 0.7780 0.3991 0.0000
vt 0.6349 0.5702 0.0000
vt 0.6327 0.4019 0.0000
vt 0.4880 0.5713 0.0000
vt 0.4878 0.4028 0.0000
vt 0.8597 0.7061 0.0000
vt 1.0198 0.7011 0.0000
vt 0.9429 0.8430 0.0000
vt 0.6996 0.7070 0.0000
vt 0.7816 0.8459 0.0000
# 24 texture coords

g Sphere002
usemtl Material__25
s 1
f 15/25/15 16/26/16 17/27/17 
f 15/25/15 17/27/17 18/28/18 
f 15/25/15 18/28/18 19/29/19 
f 15/25/15 19/29/19 20/30/20 
f 15/25/15 20/30/20 21/31/21 
f 15/25/15 21/31/21 16/26/16 
f 16/32/16 22/33/22 23/34/23 
f 16/32/16 23/34/23 17/27/17 
f 17/27/17 23/34/23 24/35/24 
f 17/27/17 24/35/24 18/28/18 
f 18/36/18 24/37/24 25/38/25 
f 18/36/18 25/38/25 19/39/19 
f 19/39/19 25/38/25 26/40/26 
f 19/39/19 26/40/26 20/41/20 
f 20/41/20 26/40/26 27/42/27 
f 20/41/20 27/42/27 21/43/21 
f 21/43/21 27/42/27 22/33/22 
f 21/43/21 22/33/22 16/32/16 
f 28/44/28 23/45/23 22/46/22 
f 28/44/28 24/37/24 23/45/23 
f 28/44/28 25/38/25 24/37/24 
f 28/44/28 26/47/26 25/38/25 
f 28/44/28 27/48/27 26/47/26 
f 28/44/28 22/46/22 27/48/27 
# 24 faces

#
# object Sphere003
#

v  -5.7716 13.6431 -16.3875
v  0.3663 10.7214 -28.1618
v  -4.0163 1.5144 -22.2747
v  -4.0163 1.5144 -10.5004
v  0.3663 10.7214 -4.6133
v  4.7490 19.9283 -10.5004
v  4.7490 19.9283 -22.2747
v  12.6423 4.8779 -28.1618
v  8.2596 -4.3291 -22.2747
v  8.2596 -4.3291 -10.5004
v  12.6423 4.8779 -4.6133
v  17.0249 14.0848 -10.5004
v  17.0249 14.0848 -22.2747
v  18.7802 1.9561 -16.3875
# 14 vertices

vn -0.9029 0.4298 -0.0000
vn -0.3985 0.1897 -0.8973
vn -0.7325 -0.5120 -0.4487
vn -0.7325 -0.5120 0.4487
vn -0.3985 0.1897 0.8973
vn -0.0645 0.8914 0.4487
vn -0.0645 0.8914 -0.4487
vn 0.3985 -0.1897 -0.8973
vn 0.0645 -0.8914 -0.4487
vn 0.0645 -0.8914 0.4487
vn 0.3985 -0.1897 0.8973
vn 0.7325 0.5120 0.4487
vn 0.7325 0.5120 -0.4487
vn 0.9029 -0.4298 -0.0000
# 14 vertex normals

vt 0.1277 0.2577 0.0000
vt 0.2877 0.2674 0.0000
vt 0.1979 0.3997 0.0000
vt 0.0441 0.3943 0.0000
vt -0.0321 0.2498 0.0000
vt 0.0565 0.1143 0.0000
vt 0.2165 0.1239 0.0000
vt 0.3428 0.4021 0.0000
vt 0.3411 0.5706 0.0000
vt 0.1942 0.5683 0.0000
vt 0.0473 0.5648 0.0000
vt 0.9253 0.3964 0.0000
vt 0.9338 0.5648 0.0000
vt 0.7805 0.5676 0.0000
vt 0.7780 0.3991 0.0000
vt 0.6349 0.5702 0.0000
vt 0.6327 0.4019 0.0000
vt 0.4880 0.5713 0.0000
vt 0.4878 0.4028 0.0000
vt 0.8597 0.7061 0.0000
vt 1.0198 0.7011 0.0000
vt 0.9429 0.8430 0.0000
vt 0.6996 0.7070 0.0000
vt 0.7816 0.8459 0.0000
# 24 texture coords

g Sphere003
usemtl Material__25
s 1
f 29/49/29 30/50/30 31/51/31 
f 29/49/29 31/51/31 32/52/32 
f 29/49/29 32/52/32 33/53/33 
f 29/49/29 33/53/33 34/54/34 
f 29/49/29 34/54/34 35/55/35 
f 29/49/29 35/55/35 30/50/30 
f 30/56/30 36/57/36 37/58/37 
f 30/56/30 37/58/37 31/51/31 
f 31/51/31 37/58/37 38/59/38 
f 31/51/31 38/59/38 32/52/32 
f 32/60/32 38/61/38 39/62/39 
f 32/60/32 39/62/39 33/63/33 
f 33/63/33 39/62/39 40/64/40 
f 33/63/33 40/64/40 34/65/34 
f 34/65/34 40/64/40 41/66/41 
f 34/65/34 41/66/41 35/67/35 
f 35/67/35 41/66/41 36/57/36 
f 35/67/35 36/57/36 30/56/30 
f 42/68/42 37/69/37 36/70/36 
f 42/68/42 38/61/38 37/69/37 
f 42/68/42 39/62/39 38/61/38 
f 42/68/42 40/71/40 39/62/39 
f 42/68/42 41/72/41 40/71/40 
f 42/68/42 36/70/36 41/72/41 
# 24 faces

#
# object Sphere004
#

v  -21.0157 -2.7421 -15.2127
v  -11.3949 16.8311 -20.3591
v  0.2077 3.7009 -12.0166
v  -6.9443 -8.5410 1.2350
v  -25.6987 -7.6525 6.1442
v  -37.3013 5.4777 -2.1982
v  -30.1493 17.7196 -15.4499
v  -6.4570 31.4940 -4.1487
v  5.1456 18.3637 4.1938
v  -2.0064 6.1218 17.4455
v  -20.7608 7.0103 22.3547
v  -32.3634 20.1405 14.0122
v  -25.2114 32.3824 0.7605
v  -11.1400 26.5835 17.2082
# 14 vertices

vn -0.2204 -0.6543 -0.7234
vn 0.2334 0.2773 -0.9320
vn 0.7699 -0.3299 -0.5463
vn 0.4392 -0.8959 0.0665
vn -0.4279 -0.8548 0.2935
vn -0.9644 -0.2477 -0.0923
vn -0.6337 0.3184 -0.7050
vn 0.4279 0.8548 -0.2935
vn 0.9644 0.2477 0.0923
vn 0.6337 -0.3184 0.7050
vn -0.2334 -0.2773 0.9320
vn -0.7699 0.3299 0.5463
vn -0.4392 0.8959 -0.0665
vn 0.2204 0.6543 0.7234
# 14 vertex normals

vt 0.1277 0.2577 0.0000
vt 0.2877 0.2674 0.0000
vt 0.1979 0.3997 0.0000
vt 0.0441 0.3943 0.0000
vt -0.0321 0.2498 0.0000
vt 0.0565 0.1143 0.0000
vt 0.2165 0.1239 0.0000
vt 0.3428 0.4021 0.0000
vt 0.3411 0.5706 0.0000
vt 0.1942 0.5683 0.0000
vt 0.0473 0.5648 0.0000
vt 0.9253 0.3964 0.0000
vt 0.9338 0.5648 0.0000
vt 0.7805 0.5676 0.0000
vt 0.7780 0.3991 0.0000
vt 0.6349 0.5702 0.0000
vt 0.6327 0.4019 0.0000
vt 0.4880 0.5713 0.0000
vt 0.4878 0.4028 0.0000
vt 0.8597 0.7061 0.0000
vt 1.0198 0.7011 0.0000
vt 0.9429 0.8430 0.0000
vt 0.6996 0.7070 0.0000
vt 0.7816 0.8459 0.0000
# 24 texture coords

g Sphere004
usemtl Material__25
s 1
f 43/73/43 44/74/44 45/75/45 
f 43/73/43 45/75/45 46/76/46 
f 43/73/43 46/76/46 47/77/47 
f 43/73/43 47/77/47 48/78/48 
f 43/73/43 48/78/48 49/79/49 
f 43/73/43 49/79/49 44/74/44 
f 44/80/44 50/81/50 51/82/51 
f 44/80/44 51/82/51 45/75/45 
f 45/75/45 51/82/51 52/83/52 
f 45/75/45 52/83/52 46/76/46 
f 46/84/46 52/85/52 53/86/53 
f 46/84/46 53/86/53 47/87/47 
f 47/87/47 53/86/53 54/88/54 
f 47/87/47 54/88/54 48/89/48 
f 48/89/48 54/88/54 55/90/55 
f 48/89/48 55/90/55 49/91/49 
f 49/91/49 55/90/55 50/81/50 
f 49/91/49 50/81/50 44/80/44 
f 56/92/56 51/93/51 50/94/50 
f 56/92/56 52/85/52 51/93/51 
f 56/92/56 53/86/53 52/85/52 
f 56/92/56 54/95/54 53/86/53 
f 56/92/56 55/96/55 54/95/54 
f 56/92/56 50/94/50 55/96/55 
# 24 faces

#
# object Sphere005
#

v  13.9528 7.5326 30.6587
v  20.1916 4.8328 18.8844
v  16.1419 -4.5254 24.7716
v  16.1419 -4.5254 36.5459
v  20.1916 4.8328 42.4330
v  24.2412 14.1910 36.5459
v  24.2412 14.1910 24.7716
v  32.6692 -0.5668 18.8844
v  28.6195 -9.9249 24.7716
v  28.6195 -9.9249 36.5459
v  32.6692 -0.5668 42.4330
v  36.7188 8.7914 36.5459
v  36.7188 8.7914 24.7716
v  38.9080 -3.2665 30.6587
# 14 vertices

vn -0.9178 0.3971 -0.0000
vn -0.4050 0.1753 -0.8973
vn -0.7137 -0.5379 -0.4487
vn -0.7137 -0.5379 0.4487
vn -0.4050 0.1753 0.8973
vn -0.0964 0.8885 0.4487
vn -0.0964 0.8885 -0.4487
vn 0.4050 -0.1753 -0.8973
vn 0.0964 -0.8885 -0.4487
vn 0.0964 -0.8885 0.4487
vn 0.4050 -0.1753 0.8973
vn 0.7137 0.5379 0.4487
vn 0.7137 0.5379 -0.4487
vn 0.9178 -0.3971 -0.0000
# 14 vertex normals

vt 0.1277 0.2577 0.0000
vt 0.2877 0.2674 0.0000
vt 0.1979 0.3997 0.0000
vt 0.0441 0.3943 0.0000
vt -0.0321 0.2498 0.0000
vt 0.0565 0.1143 0.0000
vt 0.2165 0.1239 0.0000
vt 0.3428 0.4021 0.0000
vt 0.3411 0.5706 0.0000
vt 0.1942 0.5683 0.0000
vt 0.0473 0.5648 0.0000
vt 0.9253 0.3964 0.0000
vt 0.9338 0.5648 0.0000
vt 0.7805 0.5676 0.0000
vt 0.7780 0.3991 0.0000
vt 0.6349 0.5702 0.0000
vt 0.6327 0.4019 0.0000
vt 0.4880 0.5713 0.0000
vt 0.4878 0.4028 0.0000
vt 0.8597 0.7061 0.0000
vt 1.0198 0.7011 0.0000
vt 0.9429 0.8430 0.0000
vt 0.6996 0.7070 0.0000
vt 0.7816 0.8459 0.0000
# 24 texture coords

g Sphere005
usemtl Material__25
s 1
f 57/97/57 58/98/58 59/99/59 
f 57/97/57 59/99/59 60/100/60 
f 57/97/57 60/100/60 61/101/61 
f 57/97/57 61/101/61 62/102/62 
f 57/97/57 62/102/62 63/103/63 
f 57/97/57 63/103/63 58/98/58 
f 58/104/58 64/105/64 65/106/65 
f 58/104/58 65/106/65 59/99/59 
f 59/99/59 65/106/65 66/107/66 
f 59/99/59 66/107/66 60/100/60 
f 60/108/60 66/109/66 67/110/67 
f 60/108/60 67/110/67 61/111/61 
f 61/111/61 67/110/67 68/112/68 
f 61/111/61 68/112/68 62/113/62 
f 62/113/62 68/112/68 69/114/69 
f 62/113/62 69/114/69 63/115/63 
f 63/115/63 69/114/69 64/105/64 
f 63/115/63 64/105/64 58/104/58 
f 70/116/70 65/117/65 64/118/64 
f 70/116/70 66/109/66 65/117/65 
f 70/116/70 67/110/67 66/109/66 
f 70/116/70 68/119/68 67/110/67 
f 70/116/70 69/120/69 68/119/68 
f 70/116/70 64/118/64 69/120/69 
# 24 faces

#
# object Sphere006
#

v  -11.9559 31.6881 1.0305
v  -3.0199 28.7836 -15.6219
v  -8.3327 15.1541 -7.8628
v  -8.3823 14.5347 8.6843
v  -3.1190 27.5448 17.4723
v  2.1938 41.1743 9.7132
v  2.2434 41.7937 -6.8339
v  14.7530 21.7358 -15.8325
v  9.4402 8.1063 -8.0734
v  9.3906 7.4869 8.4737
v  14.6539 20.4970 17.2617
v  19.9667 34.1265 9.5026
v  20.0162 34.7459 -7.0445
v  23.5899 17.5925 0.6093
# 14 vertices

vn -0.9295 0.3686 0.0110
vn -0.4075 0.1962 -0.8919
vn -0.6955 -0.5424 -0.4714
vn -0.6981 -0.5759 0.4253
vn -0.4129 0.1291 0.9016
vn -0.1250 0.8677 0.4811
vn -0.1223 0.9013 -0.4156
vn 0.4129 -0.1291 -0.9016
vn 0.1250 -0.8677 -0.4811
vn 0.1223 -0.9013 0.4156
vn 0.4075 -0.1962 0.8919
vn 0.6955 0.5424 0.4714
vn 0.6981 0.5759 -0.4253
vn 0.9295 -0.3686 -0.0110
# 14 vertex normals

vt 0.1277 0.2577 0.0000
vt 0.2877 0.2674 0.0000
vt 0.1979 0.3997 0.0000
vt 0.0441 0.3943 0.0000
vt -0.0321 0.2498 0.0000
vt 0.0565 0.1143 0.0000
vt 0.2165 0.1239 0.0000
vt 0.3428 0.4021 0.0000
vt 0.3411 0.5706 0.0000
vt 0.1942 0.5683 0.0000
vt 0.0473 0.5648 0.0000
vt 0.9253 0.3964 0.0000
vt 0.9338 0.5648 0.0000
vt 0.7805 0.5676 0.0000
vt 0.7780 0.3991 0.0000
vt 0.6349 0.5702 0.0000
vt 0.6327 0.4019 0.0000
vt 0.4880 0.5713 0.0000
vt 0.4878 0.4028 0.0000
vt 0.8597 0.7061 0.0000
vt 1.0198 0.7011 0.0000
vt 0.9429 0.8430 0.0000
vt 0.6996 0.7070 0.0000
vt 0.7816 0.8459 0.0000
# 24 texture coords

g Sphere006
usemtl Material__25
s 1
f 71/121/71 72/122/72 73/123/73 
f 71/121/71 73/123/73 74/124/74 
f 71/121/71 74/124/74 75/125/75 
f 71/121/71 75/125/75 76/126/76 
f 71/121/71 76/126/76 77/127/77 
f 71/121/71 77/127/77 72/122/72 
f 72/128/72 78/129/78 79/130/79 
f 72/128/72 79/130/79 73/123/73 
f 73/123/73 79/130/79 80/131/80 
f 73/123/73 80/131/80 74/124/74 
f 74/132/74 80/133/80 81/134/81 
f 74/132/74 81/134/81 75/135/75 
f 75/135/75 81/134/81 82/136/82 
f 75/135/75 82/136/82 76/137/76 
f 76/137/76 82/136/82 83/138/83 
f 76/137/76 83/138/83 77/139/77 
f 77/139/77 83/138/83 78/129/78 
f 77/139/77 78/129/78 72/128/72 
f 84/140/84 79/141/79 78/142/78 
f 84/140/84 80/133/80 79/141/79 
f 84/140/84 81/134/81 80/133/80 
f 84/140/84 82/143/82 81/134/81 
f 84/140/84 83/144/83 82/143/82 
f 84/140/84 78/142/78 83/144/83 
# 24 faces

#
# object Sphere007
#

v  -20.6299 8.2952 29.2498
v  -23.6225 10.9479 19.9930
v  -29.9683 8.4528 25.4487
v  -28.4170 2.2649 31.4121
v  -20.5198 -1.4279 31.9200
v  -14.1739 1.0673 26.4643
v  -15.7253 7.2552 20.5009
v  -26.5050 3.8777 13.4065
v  -32.8509 1.3825 18.8622
v  -31.2995 -4.8054 24.8256
v  -23.4023 -8.4982 25.3335
v  -17.0565 -6.0030 19.8778
v  -18.6078 0.1849 13.9143
v  -26.3949 -5.8454 16.0767
# 14 vertices

vn 0.2859 0.7012 0.6532
vn -0.0333 0.9453 -0.3245
vn -0.6853 0.6889 0.2361
vn -0.5259 0.0530 0.8489
vn 0.2856 -0.3264 0.9011
vn 0.9377 -0.0700 0.3405
vn 0.7782 0.5658 -0.2723
vn -0.2856 0.3264 -0.9011
vn -0.9377 0.0700 -0.3405
vn -0.7782 -0.5658 0.2723
vn 0.0333 -0.9453 0.3245
vn 0.6853 -0.6889 -0.2361
vn 0.5259 -0.0530 -0.8489
vn -0.2859 -0.7012 -0.6532
# 14 vertex normals

vt 0.1277 0.2577 0.0000
vt 0.2877 0.2674 0.0000
vt 0.1979 0.3997 0.0000
vt 0.0441 0.3943 0.0000
vt -0.0321 0.2498 0.0000
vt 0.0565 0.1143 0.0000
vt 0.2165 0.1239 0.0000
vt 0.3428 0.4021 0.0000
vt 0.3411 0.5706 0.0000
vt 0.1942 0.5683 0.0000
vt 0.0473 0.5648 0.0000
vt 0.9253 0.3964 0.0000
vt 0.9338 0.5648 0.0000
vt 0.7805 0.5676 0.0000
vt 0.7780 0.3991 0.0000
vt 0.6349 0.5702 0.0000
vt 0.6327 0.4019 0.0000
vt 0.4880 0.5713 0.0000
vt 0.4878 0.4028 0.0000
vt 0.8597 0.7061 0.0000
vt 1.0198 0.7011 0.0000
vt 0.9429 0.8430 0.0000
vt 0.6996 0.7070 0.0000
vt 0.7816 0.8459 0.0000
# 24 texture coords

g Sphere007
usemtl Material__25
s 1
f 85/145/85 86/146/86 87/147/87 
f 85/145/85 87/147/87 88/148/88 
f 85/145/85 88/148/88 89/149/89 
f 85/145/85 89/149/89 90/150/90 
f 85/145/85 90/150/90 91/151/91 
f 85/145/85 91/151/91 86/146/86 
f 86/152/86 92/153/92 93/154/93 
f 86/152/86 93/154/93 87/147/87 
f 87/147/87 93/154/93 94/155/94 
f 87/147/87 94/155/94 88/148/88 
f 88/156/88 94/157/94 95/158/95 
f 88/156/88 95/158/95 89/159/89 
f 89/159/89 95/158/95 96/160/96 
f 89/159/89 96/160/96 90/161/90 
f 90/161/90 96/160/96 97/162/97 
f 90/161/90 97/162/97 91/163/91 
f 91/163/91 97/162/97 92/153/92 
f 91/163/91 92/153/92 86/152/86 
f 98/164/98 93/165/93 92/166/92 
f 98/164/98 94/157/94 93/165/93 
f 98/164/98 95/158/95 94/157/94 
f 98/164/98 96/167/96 95/158/95 
f 98/164/98 97/168/97 96/167/96 
f 98/164/98 92/166/92 97/168/97 
# 24 faces

#
# object Sphere008
#

v  22.0040 16.2134 -21.6416
v  23.8279 8.7305 -33.6708
v  13.4804 6.2758 -27.3525
v  13.4916 6.8644 -14.9965
v  23.8502 9.9077 -8.9588
v  34.1977 12.3625 -15.2771
v  34.1865 11.7739 -27.6331
v  27.4981 -5.0581 -33.0172
v  17.1506 -7.5128 -26.6989
v  17.1617 -6.9242 -14.3430
v  27.5203 -3.8808 -8.3053
v  37.8678 -1.4261 -14.6235
v  37.8567 -2.0147 -26.9795
v  29.3443 -11.3638 -20.3345
# 14 vertices

vn -0.2569 0.9653 -0.0458
vn -0.1142 0.3833 -0.9165
vn -0.8648 0.2053 -0.4582
vn -0.8640 0.2480 0.4381
vn -0.1126 0.4687 0.8761
vn 0.6380 0.6468 0.4178
vn 0.6372 0.6041 -0.4785
vn 0.1126 -0.4687 -0.8761
vn -0.6380 -0.6468 -0.4178
vn -0.6372 -0.6041 0.4785
vn 0.1142 -0.3833 0.9165
vn 0.8648 -0.2053 0.4582
vn 0.8640 -0.2480 -0.4381
vn 0.2569 -0.9653 0.0458
# 14 vertex normals

vt 0.1277 0.2577 0.0000
vt 0.2877 0.2674 0.0000
vt 0.1979 0.3997 0.0000
vt 0.0441 0.3943 0.0000
vt -0.0321 0.2498 0.0000
vt 0.0565 0.1143 0.0000
vt 0.2165 0.1239 0.0000
vt 0.3428 0.4021 0.0000
vt 0.3411 0.5706 0.0000
vt 0.1942 0.5683 0.0000
vt 0.0473 0.5648 0.0000
vt 0.9253 0.3964 0.0000
vt 0.9338 0.5648 0.0000
vt 0.7805 0.5676 0.0000
vt 0.7780 0.3991 0.0000
vt 0.6349 0.5702 0.0000
vt 0.6327 0.4019 0.0000
vt 0.4880 0.5713 0.0000
vt 0.4878 0.4028 0.0000
vt 0.8597 0.7061 0.0000
vt 1.0198 0.7011 0.0000
vt 0.9429 0.8430 0.0000
vt 0.6996 0.7070 0.0000
vt 0.7816 0.8459 0.0000
# 24 texture coords

g Sphere008
usemtl Material__25
s 1
f 99/169/99 100/170/100 101/171/101 
f 99/169/99 101/171/101 102/172/102 
f 99/169/99 102/172/102 103/173/103 
f 99/169/99 103/173/103 104/174/104 
f 99/169/99 104/174/104 105/175/105 
f 99/169/99 105/175/105 100/170/100 
f 100/176/100 106/177/106 107/178/107 
f 100/176/100 107/178/107 101/171/101 
f 101/171/101 107/178/107 108/179/108 
f 101/171/101 108/179/108 102/172/102 
f 102/180/102 108/181/108 109/182/109 
f 102/180/102 109/182/109 103/183/103 
f 103/183/103 109/182/109 110/184/110 
f 103/183/103 110/184/110 104/185/104 
f 104/185/104 110/184/110 111/186/111 
f 104/185/104 111/186/111 105/187/105 
f 105/187/105 111/186/111 106/177/106 
f 105/187/105 106/177/106 100/176/100 
f 112/188/112 107/189/107 106/190/106 
f 112/188/112 108/181/108 107/189/107 
f 112/188/112 109/182/109 108/181/108 
f 112/188/112 110/191/110 109/182/109 
f 112/188/112 111/192/111 110/191/110 
f 112/188/112 106/190/106 111/192/111 
# 24 faces

#
# object Sphere009
#

v  -27.3682 6.4737 -24.1615
v  -21.0815 3.3886 -35.8150
v  -25.0533 -5.7776 -29.5829
v  -25.0759 -5.3306 -17.8172
v  -21.1267 4.2827 -12.2834
v  -17.1548 13.4489 -18.5154
v  -17.1322 13.0019 -30.2812
v  -8.5532 -1.8874 -35.5904
v  -12.5250 -11.0537 -29.3584
v  -12.5476 -10.6066 -17.5926
v  -8.5984 -0.9934 -12.0589
v  -4.6265 8.1729 -18.2909
v  -4.6039 7.7259 -30.0567
v  -2.3116 -4.0784 -23.7124
# 14 vertices

vn -0.9215 0.3881 -0.0165
vn -0.4050 0.1372 -0.9040
vn -0.7077 -0.5614 -0.4290
vn -0.7094 -0.5273 0.4677
vn -0.4084 0.2053 0.8894
vn -0.1057 0.9039 0.4145
vn -0.1040 0.8698 -0.4822
vn 0.4084 -0.2053 -0.8894
vn 0.1057 -0.9039 -0.4145
vn 0.1040 -0.8698 0.4822
vn 0.4050 -0.1372 0.9040
vn 0.7077 0.5614 0.4290
vn 0.7094 0.5273 -0.4677
vn 0.9215 -0.3881 0.0165
# 14 vertex normals

vt 0.1277 0.2577 0.0000
vt 0.2877 0.2674 0.0000
vt 0.1979 0.3997 0.0000
vt 0.0441 0.3943 0.0000
vt -0.0321 0.2498 0.0000
vt 0.0565 0.1143 0.0000
vt 0.2165 0.1239 0.0000
vt 0.3428 0.4021 0.0000
vt 0.3411 0.5706 0.0000
vt 0.1942 0.5683 0.0000
vt 0.0473 0.5648 0.0000
vt 0.9253 0.3964 0.0000
vt 0.9338 0.5648 0.0000
vt 0.7805 0.5676 0.0000
vt 0.7780 0.3991 0.0000
vt 0.6349 0.5702 0.0000
vt 0.6327 0.4019 0.0000
vt 0.4880 0.5713 0.0000
vt 0.4878 0.4028 0.0000
vt 0.8597 0.7061 0.0000
vt 1.0198 0.7011 0.0000
vt 0.9429 0.8430 0.0000
vt 0.6996 0.7070 0.0000
vt 0.7816 0.8459 0.0000
# 24 texture coords

g Sphere009
usemtl Material__25
s 1
f 113/193/113 114/194/114 115/195/115 
f 113/193/113 115/195/115 116/196/116 
f 113/193/113 116/196/116 117/197/117 
f 113/193/113 117/197/117 118/198/118 
f 113/193/113 118/198/118 119/199/119 
f 113/193/113 119/199/119 114/194/114 
f 114/200/114 120/201/120 121/202/121 
f 114/200/114 121/202/121 115/195/115 
f 115/195/115 121/202/121 122/203/122 
f 115/195/115 122/203/122 116/196/116 
f 116/204/116 122/205/122 123/206/123 
f 116/204/116 123/206/123 117/207/117 
f 117/207/117 123/206/123 124/208/124 
f 117/207/117 124/208/124 118/209/118 
f 118/209/118 124/208/124 125/210/125 
f 118/209/118 125/210/125 119/211/119 
f 119/211/119 125/210/125 120/201/120 
f 119/211/119 120/201/120 114/200/114 
f 126/212/126 121/213/121 120/214/120 
f 126/212/126 122/205/122 121/213/121 
f 126/212/126 123/206/123 122/205/122 
f 126/212/126 124/215/124 123/206/123 
f 126/212/126 125/216/125 124/215/124 
f 126/212/126 120/214/120 125/216/125 
# 24 faces

